<?xml version="1.0" standalone="no"?>
<!DOCTYPE svg PUBLIC "-//W3C//DTD SVG 20010904//EN"
 "http://www.w3.org/TR/2001/REC-SVG-20010904/DTD/svg10.dtd">
<svg version="1.0" xmlns="http://www.w3.org/2000/svg"
 width="1024.000000pt" height="1024.000000pt" viewBox="0 0 1024.000000 1024.000000"
 preserveAspectRatio="xMidYMid meet">

<g transform="translate(0.000000,1024.000000) scale(0.100000,-0.100000)"
fill="#000000" stroke="none">
<path d="M0 5120 l0 -5120 5120 0 5120 0 0 5120 0 5120 -5120 0 -5120 0 0
-5120z m5420 4150 c0 -5 -5 -10 -11 -10 -5 0 -7 5 -4 10 3 6 8 10 11 10 2 0 4
-4 4 -10z m1144 -410 c25 -51 72 -80 129 -80 25 0 49 -4 52 -10 4 -6 -18 -10
-58 -10 -56 0 -66 -3 -88 -27 -49 -54 -58 -78 -61 -165 l-3 -83 -9 89 c-7 72
-14 98 -39 137 -29 48 -31 49 -81 49 -28 0 -82 3 -121 8 l-70 7 108 5 c83 4
111 9 120 21 7 9 22 21 35 28 12 6 22 19 22 27 0 9 -5 12 -12 8 -13 -8 9 25
24 36 4 3 11 55 15 115 l8 110 6 -115 c4 -78 12 -126 23 -150z m-509 200 c3
-5 1 -10 -4 -10 -6 0 -11 5 -11 10 0 6 2 10 4 10 3 0 8 -4 11 -10z m375 -54
c0 -3 -4 -8 -10 -11 -5 -3 -10 -1 -10 4 0 6 5 11 10 11 6 0 10 -2 10 -4z
m-2040 -130 c0 -3 -4 -8 -10 -11 -5 -3 -10 -1 -10 4 0 6 5 11 10 11 6 0 10 -2
10 -4z m1260 -6 c0 -5 -4 -10 -10 -10 -5 0 -10 5 -10 10 0 6 5 10 10 10 6 0
10 -4 10 -10z m1450 -15 c0 -8 -4 -15 -9 -15 -13 0 -22 16 -14 24 11 11 23 6
23 -9z m-3629 -186 c36 -32 36 -43 3 -57 -18 -9 -24 -17 -19 -31 3 -11 1 -22
-5 -26 -5 -3 -11 -18 -11 -33 l-2 -27 -4 25 c-3 14 -11 32 -18 40 -7 8 -15 24
-17 35 -2 11 -9 21 -16 21 -6 1 -19 2 -27 3 -19 1 -20 21 0 21 8 0 19 9 25 20
6 11 17 20 24 20 8 0 17 10 21 23 5 17 8 18 12 7 3 -8 19 -27 34 -41z m1929
-3 c0 -3 -4 -8 -10 -11 -5 -3 -10 -1 -10 4 0 6 5 11 10 11 6 0 10 -2 10 -4z
m-576 -30 c-7 -19 -34 -29 -34 -12 0 16 10 26 26 26 8 0 11 -6 8 -14z m203
-30 c32 -24 84 -60 117 -81 47 -30 60 -35 68 -24 8 11 9 11 5 -2 -3 -10 5 -24
23 -38 60 -44 284 -191 292 -191 4 0 4 7 1 17 -4 11 -3 14 6 9 6 -4 10 -15 9
-24 -3 -17 53 -35 80 -25 12 5 12 2 3 -15 -7 -12 -7 -23 -2 -27 5 -3 12 4 16
15 3 11 11 20 16 20 12 0 11 -7 -1 -30 -7 -13 -7 -21 2 -26 6 -4 14 -2 16 4 5
17 29 15 36 -4 3 -8 10 -12 16 -9 5 3 10 1 10 -4 0 -6 6 -11 14 -11 8 0 18 -5
22 -12 5 -8 -2 -9 -27 -4 -31 6 -32 5 -14 -8 11 -9 28 -16 38 -16 9 0 17 -4
17 -9 0 -10 39 -27 53 -23 4 1 7 -8 8 -21 0 -12 3 -16 6 -9 2 6 9 12 15 12 6
0 8 -7 4 -15 -3 -8 -1 -15 4 -15 6 0 10 5 10 11 0 5 5 7 11 4 6 -4 8 -13 5
-21 -6 -16 10 -29 19 -14 10 16 28 11 21 -6 -6 -16 7 -32 47 -55 11 -6 17 -6
17 1 0 5 -7 10 -15 10 -8 0 -15 4 -15 9 0 6 12 6 30 0 17 -6 30 -16 30 -21 0
-6 9 -8 19 -5 14 3 18 1 14 -9 -4 -10 -10 -11 -25 -3 -11 6 -22 8 -25 5 -11
-10 103 -73 131 -72 23 1 31 -4 36 -23 5 -21 7 -22 19 -7 13 15 15 15 27 -1 7
-10 13 -22 13 -28 0 -5 -4 -2 -10 8 -6 9 -15 15 -20 11 -14 -8 9 -34 31 -34
10 0 20 -7 24 -15 3 -8 9 -14 13 -13 4 1 21 -10 37 -25 33 -31 46 -34 46 -11
0 8 5 12 10 9 6 -4 8 -15 5 -26 -4 -13 -2 -19 9 -19 10 0 13 6 9 17 -6 15 -5
16 9 3 9 -8 12 -16 7 -18 -14 -6 -10 -22 6 -22 7 0 19 8 24 18 9 15 10 15 11
0 0 -9 -6 -18 -12 -21 -18 -6 24 -39 89 -73 29 -15 60 -35 69 -46 23 -25 48
-25 35 1 -10 17 -8 18 13 8 19 -9 22 -15 13 -25 -12 -15 -7 -19 47 -48 21 -12
31 -13 36 -4 5 8 9 4 13 -10 4 -16 11 -21 22 -16 9 3 18 0 21 -9 6 -14 48 -14
62 0 13 13 -5 218 -19 209 -5 -3 -6 9 -3 25 4 19 1 37 -6 46 -7 9 -10 18 -7
22 16 15 -63 84 -109 96 -13 3 -9 5 10 6 16 0 26 4 23 8 -17 16 -156 32 -292
33 -187 2 -159 16 60 31 166 11 221 20 218 37 -2 6 3 9 10 6 14 -5 67 48 67
67 0 5 4 8 9 5 5 -3 16 9 24 27 12 24 18 82 23 207 8 185 22 206 24 35 1 -144
15 -247 34 -261 9 -6 16 -16 16 -22 0 -6 12 -18 28 -26 15 -8 23 -15 19 -16
-4 0 -3 -8 2 -19 15 -26 84 -41 195 -41 53 0 96 -4 96 -8 0 -4 -56 -13 -124
-18 l-125 -11 -38 -40 c-51 -54 -61 -74 -53 -98 8 -22 4 -35 -12 -35 -5 0 -8
7 -5 15 4 8 1 17 -5 21 -7 5 -9 -6 -6 -32 3 -22 1 -50 -4 -63 -4 -13 -10 -83
-13 -156 -4 -130 -4 -132 19 -143 24 -11 26 -7 26 48 0 16 3 20 8 13 5 -8 37
24 92 95 101 127 131 175 166 265 14 37 36 74 48 82 11 7 66 27 121 43 55 17
145 51 200 76 186 85 634 240 649 225 3 -2 -2 -49 -10 -104 -8 -55 -23 -171
-33 -257 -11 -86 -22 -161 -25 -167 -4 -6 -11 -73 -15 -148 -9 -134 -11 -142
-61 -268 -63 -160 -109 -258 -144 -309 -14 -22 -24 -41 -22 -43 2 -2 31 3 65
12 73 19 363 65 409 65 36 0 38 -6 18 -52 -36 -82 -45 -109 -71 -198 -39 -134
-65 -209 -86 -252 -11 -21 -19 -43 -19 -50 0 -7 -18 -57 -39 -110 -29 -72 -35
-98 -25 -98 8 0 14 -9 14 -20 0 -21 -16 -28 -22 -9 -2 7 -8 6 -16 -4 -11 -12
-8 -15 17 -19 16 -2 29 0 28 5 -1 5 4 12 12 15 9 3 12 0 9 -10 -5 -13 40 -14
343 -12 313 2 389 -2 345 -19 -26 -10 -133 -237 -192 -410 -19 -56 -39 -111
-44 -122 -4 -11 -13 -33 -19 -50 -13 -37 -51 -237 -51 -269 0 -17 -21 -35 -92
-81 -94 -61 -208 -160 -208 -182 0 -6 6 -14 13 -17 8 -3 7 -8 -5 -16 -31 -19
-21 -46 25 -67 23 -11 74 -36 114 -55 57 -28 73 -32 77 -21 3 8 2 11 -3 8 -5
-3 -12 -1 -16 5 -4 6 -11 8 -16 5 -5 -4 -12 1 -15 9 -3 9 -13 16 -21 16 -8 0
-12 4 -9 9 3 5 17 9 32 9 14 0 29 4 33 9 3 5 25 15 48 22 39 13 41 16 36 42
-6 32 5 37 36 17 15 -9 24 -8 48 7 15 11 33 19 38 20 6 0 48 21 95 47 47 25
104 52 128 59 23 7 42 15 42 19 0 4 18 13 40 20 22 7 40 16 40 19 0 3 19 15
43 26 23 11 45 24 49 30 5 6 12 5 20 -3 15 -15 28 -16 28 -2 0 32 113 92 140
75 17 -11 11 -27 -9 -20 -10 3 -23 -1 -30 -9 -7 -8 -19 -12 -26 -10 -10 4 -12
-2 -9 -25 3 -18 1 -31 -5 -31 -6 0 -11 5 -11 10 0 6 -5 10 -11 10 -6 0 -9 -9
-6 -19 3 -15 1 -18 -11 -14 -11 5 -13 3 -7 -7 6 -10 3 -12 -14 -7 -17 4 -21 2
-17 -10 4 -9 -1 -17 -14 -20 -11 -3 -17 -9 -14 -14 3 -5 0 -9 -6 -9 -7 0 -10
7 -7 15 4 8 2 17 -3 20 -6 4 -10 1 -10 -4 0 -6 -3 -10 -7 -10 -15 3 -73 -23
-73 -32 0 -5 5 -9 10 -9 21 0 9 -18 -20 -30 -16 -7 -30 -17 -30 -23 0 -8 -4
-7 -11 0 -7 7 -18 8 -28 3 -9 -5 -40 -19 -68 -32 -35 -15 -51 -28 -48 -37 4
-11 2 -11 -9 -2 -11 9 -15 8 -19 -4 -4 -8 -13 -12 -22 -9 -9 4 -15 1 -15 -8 0
-8 -10 -14 -27 -13 -15 0 -28 -6 -29 -12 -1 -7 -2 -16 -3 -20 0 -4 -8 2 -16
13 -8 10 -15 15 -14 9 3 -22 -2 -29 -11 -15 -8 13 -10 13 -10 -2 0 -9 -9 -20
-20 -23 -11 -3 -20 -11 -20 -16 0 -5 -6 -9 -12 -9 -7 0 -20 -5 -28 -10 -13 -8
-12 -11 5 -24 20 -16 20 -16 -2 -13 -12 2 -26 6 -29 10 -12 12 -24 8 -24 -7 0
-8 -5 -16 -11 -18 -6 -2 15 -21 46 -43 30 -22 82 -60 115 -83 55 -40 61 -42
76 -28 8 9 13 16 9 16 -3 0 -3 5 0 10 5 8 12 7 22 -1 9 -8 17 -9 21 -3 4 6 22
17 40 25 18 8 30 19 28 26 -3 7 1 10 10 6 9 -3 25 -1 37 5 12 5 56 26 98 46
41 20 81 36 88 36 6 0 14 6 17 13 2 7 17 12 34 11 19 -1 35 4 43 16 7 10 21
20 32 22 11 2 19 10 17 17 -2 8 3 9 15 2 25 -13 55 10 47 35 -5 18 -5 18 9 1
17 -20 51 -12 43 10 -3 7 0 13 7 12 32 -4 49 2 44 15 -4 11 2 14 25 14 19 -1
34 5 40 15 5 10 14 17 19 17 6 0 7 -4 4 -10 -3 -5 -1 -10 4 -10 11 0 15 13 12
36 -1 7 9 9 24 6 20 -3 24 -1 19 12 -5 12 0 16 20 16 14 0 26 5 26 11 0 6 9 8
23 4 22 -7 22 -7 2 9 -20 17 -20 17 2 11 12 -3 35 1 50 9 26 14 27 15 6 16
-14 0 -23 6 -23 15 0 20 19 19 41 -1 20 -18 41 -11 32 11 -6 16 12 21 22 5 3
-5 13 -6 21 -3 13 5 13 7 2 14 -9 6 -6 9 11 9 24 0 24 0 5 14 -14 11 -16 17
-7 26 13 14 33 5 33 -15 0 -19 57 -30 76 -14 20 17 8 25 -13 8 -17 -12 -17
-12 -1 5 9 10 20 16 26 12 14 -8 2 -56 -14 -56 -7 0 -27 -12 -43 -27 -50 -46
-60 -54 -96 -68 -18 -8 -37 -19 -40 -25 -9 -15 -201 -140 -214 -140 -6 0 -30
-12 -54 -27 -23 -15 -94 -53 -157 -86 -63 -33 -122 -65 -130 -72 -8 -7 -26
-16 -40 -20 -14 -4 -27 -11 -30 -15 -7 -9 -166 -85 -212 -101 -21 -7 -38 -17
-38 -21 0 -4 -7 -8 -15 -8 -8 0 -23 -4 -33 -9 -9 -4 -56 -28 -104 -52 -49 -24
-88 -49 -88 -56 0 -7 -7 -10 -15 -7 -10 4 -15 0 -15 -11 0 -11 -5 -15 -15 -11
-8 3 -15 1 -15 -5 0 -6 -7 -9 -15 -5 -8 3 -15 1 -15 -5 0 -6 -8 -8 -19 -4 -12
4 -21 0 -25 -12 -6 -14 -9 -15 -15 -4 -5 7 -14 10 -20 6 -9 -5 -9 -10 0 -21
11 -13 9 -14 -13 -3 -22 9 -29 8 -46 -9 -11 -11 -17 -23 -14 -27 11 -11 -22
-24 -34 -14 -9 7 -16 4 -24 -12 -9 -16 -9 -23 0 -29 8 -5 7 -9 -4 -13 -11 -5
-16 -1 -16 13 0 10 -4 21 -9 25 -15 9 -50 -35 -44 -54 4 -11 1 -10 -10 4 -14
17 -18 18 -26 5 -5 -8 -7 -18 -5 -22 7 -12 -10 -10 -22 2 -7 7 -18 4 -34 -10
-12 -11 -27 -17 -32 -14 -6 4 -13 2 -17 -3 -14 -21 -73 -54 -87 -49 -8 3 -17
-1 -21 -10 -3 -8 -12 -13 -19 -10 -9 4 -14 -2 -14 -15 0 -11 4 -18 9 -14 5 3
12 1 16 -5 3 -5 -3 -10 -14 -10 -18 0 -19 -3 -11 -26 12 -30 4 -48 -16 -40
-16 6 -36 -53 -23 -70 5 -6 3 -19 -5 -30 -14 -20 -10 -84 5 -84 5 0 9 -10 9
-22 0 -13 4 -29 9 -37 6 -9 8 5 5 35 l-3 49 9 -40 c14 -67 22 -202 11 -185 -8
11 -11 4 -12 -30 l0 -45 -14 36 c-20 55 -65 283 -75 379 -5 47 -15 122 -22
168 l-12 83 -346 -2 c-190 -2 -352 1 -359 6 -32 19 35 25 365 31 391 6 480 16
644 70 88 30 304 135 507 248 l42 23 -32 30 c-52 48 -106 87 -207 148 -134 81
-201 112 -281 126 -39 7 -72 16 -75 20 -2 4 11 17 29 28 18 11 39 32 47 46 7
14 47 51 88 83 102 78 121 92 183 133 30 20 62 45 71 56 10 10 31 75 47 143
33 138 100 350 133 420 11 25 40 89 63 142 l42 97 -91 3 c-50 2 -221 0 -379
-5 -158 -5 -291 -7 -294 -3 -3 3 8 34 25 68 77 159 290 732 280 756 -3 10
-219 -32 -404 -78 -66 -16 -126 -30 -132 -30 -6 0 11 36 38 80 51 82 131 244
202 410 38 88 41 104 49 230 5 74 13 153 19 175 5 22 19 105 30 185 10 80 22
166 26 193 5 35 3 47 -6 47 -25 0 -207 -61 -295 -100 -88 -38 -300 -121 -440
-173 -38 -14 -86 -28 -106 -32 -34 -5 -37 -8 -53 -66 -20 -74 -63 -160 -108
-220 -19 -24 -60 -81 -92 -126 -32 -46 -65 -87 -74 -92 -9 -5 -15 -12 -12 -14
13 -14 204 -137 212 -137 17 0 7 -30 -13 -41 -21 -11 -21 -15 -15 -177 3 -92
2 -264 -4 -382 -5 -118 -9 -225 -10 -237 0 -14 -6 -23 -15 -23 -9 0 -16 -11
-17 -27 -4 -69 -16 193 -23 511 l-8 349 -41 28 c-63 43 -421 275 -553 357 -65
41 -170 107 -233 147 -63 40 -154 97 -202 126 -47 30 -254 167 -458 304 -567
381 -620 415 -635 415 -8 0 -219 -136 -469 -302 -532 -355 -892 -592 -1066
-702 -69 -43 -181 -115 -250 -160 -69 -45 -173 -110 -231 -145 l-107 -62 -6
-227 c-3 -125 -11 -349 -16 -497 -6 -149 -8 -343 -4 -433 l7 -162 -26 13 c-18
8 -28 23 -32 47 -4 19 -5 306 -4 638 4 566 3 604 -14 613 -27 16 -20 37 17 47
19 6 62 29 96 53 54 38 84 58 99 66 2 1 -24 37 -58 79 -57 70 -125 195 -203
374 l-25 55 -89 28 c-49 16 -163 53 -254 84 -437 146 -590 196 -595 192 -2 -3
2 -29 10 -59 8 -30 25 -120 39 -200 14 -80 29 -166 35 -192 6 -26 15 -100 21
-165 10 -116 11 -120 75 -253 35 -74 82 -182 105 -239 22 -57 50 -121 61 -143
11 -22 18 -42 16 -44 -2 -3 -67 9 -143 25 -159 34 -346 71 -356 71 -28 0 208
-666 280 -789 l26 -44 -387 6 c-213 3 -387 3 -387 -2 0 -5 20 -51 44 -102 40
-84 188 -509 216 -617 15 -59 54 -99 184 -191 62 -43 136 -101 166 -128 30
-28 70 -58 89 -68 l35 -17 -25 -14 c-13 -7 -68 -27 -122 -44 -54 -17 -132 -47
-175 -66 -71 -32 -228 -132 -294 -187 l-28 -23 148 -81 c183 -102 310 -158
477 -213 128 -43 133 -43 315 -50 102 -4 448 -8 769 -9 542 -1 640 -6 618 -28
-3 -2 -203 -7 -444 -9 -241 -2 -566 -5 -723 -7 l-285 -3 -120 -73 c-165 -101
-193 -120 -215 -151 -11 -15 -34 -81 -51 -146 -78 -298 -181 -600 -199 -589
-4 2 -7 -1 -7 -8 -4 -61 -32 -177 -44 -177 -5 0 -6 -7 -3 -15 4 -8 2 -15 -3
-15 -5 0 -9 -18 -10 -39 -2 -38 -51 -211 -60 -211 -2 0 -2 8 1 18 3 9 8 40 10
67 l5 50 -34 -70 c-19 -38 -34 -83 -34 -100 1 -29 1 -29 9 -5 8 25 8 25 10 -5
l2 -30 14 35 14 35 -5 -37 c-3 -21 -22 -95 -41 -165 -19 -70 -33 -134 -32
-141 2 -8 52 -31 113 -52 284 -97 294 -101 560 -213 184 -78 488 -189 570
-208 22 -6 65 -19 95 -29 54 -19 321 -63 450 -75 36 -3 71 -10 78 -14 10 -6 7
-41 -12 -162 -13 -85 -26 -175 -29 -202 l-5 -47 192 5 c576 16 561 13 610 115
24 50 49 61 76 32 26 -27 62 -102 50 -102 -5 0 -10 -4 -10 -10 0 -5 7 -7 15
-4 9 4 15 0 15 -10 0 -14 22 -15 188 -13 l187 3 55 -47 c30 -25 98 -76 150
-112 161 -112 264 -188 289 -212 l23 -23 47 31 c86 58 356 259 389 290 17 17
32 41 32 53 0 20 5 21 148 28 210 9 1143 -1 1231 -14 40 -6 77 -13 82 -16 13
-7 11 9 -5 58 -29 88 -39 136 -46 238 -4 58 -11 115 -15 127 -7 21 -5 22 23
17 30 -6 185 14 437 57 131 22 341 88 530 167 66 27 158 64 205 81 193 70 301
111 415 156 66 26 151 59 188 73 52 19 67 29 63 41 -30 90 -67 220 -70 245
-15 115 -20 139 -31 150 -7 7 -16 28 -20 47 -6 27 -84 269 -89 276 -3 5 -218
-39 -256 -52 -24 -8 -45 -13 -47 -11 -5 5 88 49 104 49 7 0 10 4 8 8 -11 16
29 30 129 44 59 8 111 13 116 10 4 -3 14 -38 20 -78 7 -39 50 -188 97 -329 86
-262 124 -342 171 -363 12 -5 22 -13 22 -16 0 -12 -65 -46 -132 -70 -34 -12
-67 -26 -73 -30 -5 -4 -57 -23 -115 -42 -58 -19 -161 -59 -230 -87 -69 -29
-143 -58 -165 -65 -76 -25 -309 -116 -321 -125 -11 -10 -193 -80 -274 -107
-67 -21 -226 -53 -295 -59 -33 -3 -94 -11 -135 -19 -41 -8 -103 -17 -138 -21
-63 -6 -64 -7 -57 -33 4 -14 11 -48 15 -76 20 -112 50 -262 60 -295 13 -44 13
-43 -4 -37 -15 6 -546 9 -1076 7 l-315 -1 -25 -23 c-14 -13 -95 -72 -180 -130
-85 -58 -177 -124 -205 -146 -27 -22 -72 -58 -100 -79 -27 -21 -63 -50 -78
-65 -35 -32 -41 -32 -61 -2 -9 14 -51 52 -93 85 -43 33 -109 84 -148 113 -120
93 -251 179 -266 175 -8 -2 -10 -2 -6 1 15 8 -61 70 -92 75 -16 3 -32 2 -36
-1 -3 -3 -96 -5 -206 -5 -194 2 -201 1 -196 -18 3 -12 0 -19 -9 -19 -9 0 -14
8 -12 18 3 16 -23 17 -442 16 l-446 -1 23 46 c21 41 37 107 57 224 6 31 4 37
-11 38 -16 1 -16 2 -1 6 33 9 52 108 21 110 -10 1 -76 11 -148 23 -175 29
-234 34 -251 19 -11 -9 -14 -8 -14 2 0 9 -50 31 -138 60 -205 69 -443 160
-572 219 -139 64 -378 156 -555 214 -71 24 -150 52 -175 63 -25 11 -56 24 -70
31 l-25 11 25 0 c39 1 65 25 85 77 19 50 98 314 145 484 15 58 40 137 55 175
41 108 42 113 21 96 -10 -9 -20 -11 -24 -5 -11 14 -44 14 -38 -1 7 -19 -5 -27
-21 -13 -8 6 -64 13 -136 15 -67 2 -130 5 -140 7 -9 2 -17 -1 -17 -7 0 -8 -3
-9 -8 -1 -9 13 -65 14 -73 1 -4 -5 -13 -6 -20 -1 -7 4 -52 8 -99 7 -47 0 -90
4 -97 9 -7 6 -19 6 -30 0 -10 -5 -43 -7 -73 -5 -30 3 -66 5 -80 6 -14 1 -28
10 -32 19 -4 10 -13 18 -20 18 -9 0 -9 -3 0 -12 23 -23 12 -27 -50 -23 -106 9
-131 15 -119 29 6 7 26 11 45 10 20 -2 38 1 41 6 4 6 14 6 26 -1 23 -12 35 -6
24 11 -4 6 -13 9 -21 6 -7 -3 -16 -1 -19 4 -7 11 -7 11 59 16 26 2 60 5 75 7
14 2 35 1 46 -3 11 -4 27 -4 36 1 9 4 76 10 150 13 203 8 257 8 278 1 11 -3
28 -2 38 4 10 5 81 14 158 20 107 9 149 17 183 34 25 12 46 27 49 33 6 15 -12
56 -36 81 -12 12 -21 29 -21 37 0 8 -6 16 -12 19 -7 2 -10 8 -6 11 9 11 48
-31 48 -51 0 -18 28 -53 42 -53 4 0 8 8 8 17 0 9 9 46 19 82 19 65 54 193 72
261 5 19 15 59 23 88 8 29 13 59 9 67 -4 11 -1 13 11 9 11 -4 16 -1 16 11 0 9
-5 13 -10 10 -6 -3 -10 -2 -10 4 0 19 18 21 35 5 9 -9 19 -13 23 -9 4 4 1 10
-6 12 -6 3 -9 10 -6 15 5 7 2 8 -6 3 -10 -6 -12 -3 -8 13 4 12 1 22 -4 22 -6
0 -4 8 3 17 12 15 12 16 -3 10 -13 -4 -15 -2 -11 11 4 9 11 20 17 24 7 5 7 8
-1 8 -7 0 -13 12 -13 28 0 18 3 23 8 14 6 -8 9 -2 9 18 0 28 -6 34 -46 52 -25
11 -64 29 -86 40 -222 113 -350 181 -400 211 -33 21 -63 37 -67 37 -4 0 -19 5
-33 10 -26 10 -24 12 76 73 57 34 126 79 152 99 26 20 83 51 125 68 42 17 85
35 94 40 10 6 23 10 29 10 6 0 27 9 45 21 l34 21 -21 29 c-17 25 -24 28 -36
18 -12 -10 -16 -10 -24 2 -5 8 -9 19 -9 24 0 6 4 3 10 -5 7 -12 12 -11 31 5
12 11 19 14 15 8 -11 -20 9 -15 28 6 16 17 15 19 -11 40 -56 43 -106 72 -116
68 -6 -2 -19 5 -29 15 -10 10 -23 16 -28 13 -6 -4 -10 -1 -10 4 0 6 -6 11 -12
11 -45 0 -107 100 -138 222 -31 119 -132 411 -185 530 -26 59 -64 132 -86 163
-36 52 -50 83 -31 71 4 -2 111 -10 237 -16 272 -14 555 -6 555 16 0 12 -13 19
-23 12 -2 -2 -11 3 -21 11 -18 15 -18 15 -33 -12 -9 -18 -11 -18 -26 -2 -19
18 -22 35 -7 35 6 0 10 -8 10 -17 1 -17 2 -17 15 1 10 13 21 17 39 12 20 -5
24 -3 19 9 -3 9 -12 14 -21 10 -11 -4 -12 -2 -4 7 8 10 -2 44 -35 128 -64 163
-116 317 -158 470 -37 135 -37 149 3 150 19 0 14 17 -10 34 -12 9 -19 16 -14
16 5 0 24 -13 42 -30 19 -16 52 -34 75 -40 93 -25 314 -67 321 -61 11 10 -18
114 -53 190 -100 214 -112 252 -126 381 -14 129 -39 268 -97 545 -20 93 -30
164 -25 169 8 9 317 -88 634 -199 66 -23 180 -62 254 -86 151 -50 182 -73 206
-152 28 -93 168 -313 198 -311 9 1 28 5 42 8 14 4 25 2 25 -4 0 -5 -6 -10 -14
-10 -20 0 -40 -26 -26 -35 6 -4 15 -18 21 -32 5 -13 14 -21 20 -18 6 4 8 13 5
21 -3 8 -1 14 4 14 5 0 16 12 24 28 8 15 15 21 16 14 0 -8 9 -12 23 -10 12 2
21 9 19 17 -2 8 3 11 13 8 19 -8 19 2 -1 24 -14 16 -13 19 7 38 12 11 25 18
28 15 3 -3 -4 -14 -16 -24 -24 -19 -21 -30 9 -30 13 0 18 8 18 28 l1 27 18
-22 19 -23 7 27 c5 21 8 24 16 12 7 -12 9 -11 9 4 0 19 15 23 25 7 9 -15 25
-12 25 5 0 9 -7 18 -15 21 -8 4 -12 11 -9 16 4 6 10 5 14 -3 9 -14 40 -22 40
-10 0 4 -5 12 -12 19 -9 9 -8 21 2 52 13 40 23 49 35 30 3 -5 1 -10 -4 -10 -6
0 -11 -9 -11 -19 0 -11 -4 -23 -10 -26 -5 -3 -10 -11 -10 -16 0 -6 4 -8 8 -5
4 2 14 1 22 -4 23 -14 53 8 47 36 -3 16 0 24 9 24 8 0 14 -6 15 -12 0 -7 5 -2
10 12 6 14 8 33 5 42 -2 10 0 15 6 12 5 -3 12 4 15 15 6 23 24 24 31 1 3 -7 0
-10 -6 -7 -11 7 -38 -50 -28 -60 3 -3 6 1 6 10 0 22 18 31 36 16 12 -10 13 -9
8 5 -3 9 -2 16 4 16 6 0 13 -6 15 -12 3 -7 6 -3 6 10 1 12 5 22 10 22 5 0 12
10 16 23 l7 22 9 -25 c8 -22 8 -21 4 8 -2 17 0 32 5 32 6 0 10 -4 10 -10 0
-14 42 -12 63 4 9 7 17 20 17 29 0 18 18 32 28 22 3 -3 0 -10 -8 -15 -11 -7
-11 -10 -2 -10 7 0 15 7 18 15 4 8 11 12 16 9 6 -4 8 4 6 17 -2 13 -8 23 -14
22 -7 -1 -9 8 -6 22 2 14 9 25 14 25 5 0 7 -9 3 -19 -4 -14 0 -21 16 -26 17
-6 18 -9 8 -16 -7 -4 -11 -10 -8 -14 6 -5 72 37 182 115 42 30 53 50 48 82 0
4 6 5 14 2 8 -4 15 -13 15 -21 0 -8 5 -11 11 -8 5 4 9 14 7 23 -2 10 3 23 12
29 13 11 13 14 0 23 -19 13 -33 13 -25 0 3 -5 1 -10 -4 -10 -13 0 -14 17 -2
24 16 10 41 -5 56 -33 11 -20 14 -22 15 -8 0 10 5 15 10 12 6 -3 10 -2 10 3 0
6 8 9 18 8 14 -1 17 9 19 53 3 59 9 73 23 51 6 -9 5 -17 -3 -22 -8 -5 -6 -9 6
-14 10 -4 16 -13 13 -21 -3 -8 -1 -11 4 -8 6 3 10 14 10 23 0 12 3 13 11 5 9
-9 50 14 161 90 81 56 177 120 212 142 80 50 126 90 126 107 0 16 20 38 34 38
5 0 1 -10 -10 -22 -24 -27 -17 -23 116 65 58 39 107 74 108 79 7 17 34 7 89
-36z m-267 -1 c0 -8 -4 -15 -10 -15 -5 0 -10 7 -10 15 0 8 5 15 10 15 6 0 10
-7 10 -15z m-70 -12 c0 -5 -5 -15 -10 -23 -8 -12 -10 -11 -10 8 0 12 5 22 10
22 6 0 10 -3 10 -7z m2872 -55 c-6 -6 -15 -9 -18 -5 -4 3 -4 14 0 23 5 13 9
15 18 6 9 -9 9 -15 0 -24z m-2902 -29 c0 -5 -4 -9 -10 -9 -5 0 -10 7 -10 16 0
8 5 12 10 9 6 -3 10 -10 10 -16z m700 2 c0 -6 -4 -13 -10 -16 -5 -3 -10 1 -10
9 0 9 5 16 10 16 6 0 10 -4 10 -9z m-97 -30 c3 -14 1 -18 -9 -14 -15 6 -18 16
-7 26 9 10 10 9 16 -12z m-1963 -11 c0 -5 -4 -10 -10 -10 -5 0 -10 5 -10 10 0
6 5 10 10 10 6 0 10 -4 10 -10z m2215 -10 c-3 -5 -10 -10 -16 -10 -5 0 -9 5
-9 10 0 6 7 10 16 10 8 0 12 -4 9 -10z m-2662 -155 c-10 -8 -22 -15 -26 -15
-4 0 -13 -13 -18 -30 -12 -33 -29 -40 -29 -12 0 11 -11 24 -25 30 -45 20 -55
35 -36 50 9 7 10 11 4 7 -25 -12 -12 15 17 37 17 12 30 27 30 33 0 6 23 -11
51 -38 47 -46 49 -49 32 -62z m1492 85 c3 -5 1 -10 -4 -10 -6 0 -11 5 -11 10
0 6 2 10 4 10 3 0 8 -4 11 -10z m75 0 c0 -5 -2 -10 -4 -10 -3 0 -8 5 -11 10
-3 6 -1 10 4 10 6 0 11 -4 11 -10z m1150 0 c0 -5 -5 -10 -11 -10 -5 0 -7 5 -4
10 3 6 8 10 11 10 2 0 4 -4 4 -10z m1250 -5 c0 -8 -4 -15 -10 -15 -5 0 -10 7
-10 15 0 8 5 15 10 15 6 0 10 -7 10 -15z m-2280 -5 c0 -5 -5 -10 -11 -10 -5 0
-7 5 -4 10 3 6 8 10 11 10 2 0 4 -4 4 -10z m404 -186 c-1 -144 -4 -189 -15
-199 -45 -43 -193 -162 -263 -211 -44 -32 -128 -92 -186 -135 -58 -42 -164
-116 -235 -163 -72 -48 -170 -117 -220 -153 -49 -37 -166 -118 -260 -179 -93
-62 -188 -126 -210 -142 -22 -15 -56 -37 -75 -48 -19 -10 -39 -25 -44 -32 -6
-11 -14 -9 -35 11 -14 13 -71 41 -126 62 -130 50 -245 102 -245 112 0 5 26 19
57 32 64 28 211 113 363 211 164 105 352 225 387 246 18 10 90 58 160 107 71
48 171 116 223 152 240 161 288 194 369 252 47 34 131 94 187 132 55 39 113
84 129 101 16 16 31 30 34 30 3 0 5 -84 5 -186z m499 165 c10 -11 15 -24 11
-27 -4 -4 -9 -1 -11 6 -3 7 -11 19 -20 27 -8 8 -11 15 -6 15 5 0 17 -9 26 -21z
m557 11 c0 -5 -5 -10 -11 -10 -5 0 -7 5 -4 10 3 6 8 10 11 10 2 0 4 -4 4 -10z
m-5210 -10 c0 -5 -2 -10 -4 -10 -3 0 -8 5 -11 10 -3 6 -1 10 4 10 6 0 11 -4
11 -10z m3720 0 c0 -5 -4 -10 -10 -10 -5 0 -10 5 -10 10 0 6 5 10 10 10 6 0
10 -4 10 -10z m511 -6 c34 -42 310 -236 709 -501 731 -486 839 -553 1098 -688
39 -20 72 -41 72 -45 0 -13 -40 -34 -140 -75 -52 -21 -125 -53 -163 -72 -48
-24 -71 -30 -80 -23 -6 5 -30 25 -52 44 -22 19 -42 32 -44 30 -3 -3 15 -22 39
-43 59 -51 47 -62 -13 -12 -25 21 -101 73 -169 116 -161 102 -270 176 -338
229 -30 24 -90 65 -132 92 -123 78 -527 352 -593 402 -33 25 -100 82 -148 126
l-88 81 6 42 c3 23 6 103 6 178 0 74 4 135 8 135 5 0 14 -7 22 -16z m469 -35
c0 -5 -4 -9 -10 -9 -5 0 -10 7 -10 16 0 8 5 12 10 9 6 -3 10 -10 10 -16z
m-1303 -11 c-3 -8 -6 -5 -6 6 -1 11 2 17 5 13 3 -3 4 -12 1 -19z m1463 18 c0
-3 -4 -8 -10 -11 -5 -3 -10 -1 -10 4 0 6 5 11 10 11 6 0 10 -2 10 -4z m-1670
-21 c7 -9 8 -15 2 -15 -5 0 -12 7 -16 15 -3 8 -4 15 -2 15 2 0 9 -7 16 -15z
m97 -21 c-9 -9 -28 6 -21 18 4 6 10 6 17 -1 6 -6 8 -13 4 -17z m-236 -17 c-1
-12 -15 -9 -19 4 -3 6 1 10 8 8 6 -3 11 -8 11 -12z m1930 -37 c-25 -22 -41
-26 -41 -10 0 6 9 10 20 10 11 0 20 5 20 10 0 6 6 10 13 10 6 -1 1 -10 -12
-20z m-1486 -10 c0 -8 -11 -17 -25 -20 -14 -4 -24 -12 -22 -18 1 -7 -3 -12 -9
-12 -6 0 -8 7 -5 16 3 9 6 23 6 31 0 13 3 13 15 3 12 -10 15 -9 15 5 0 9 6 15
13 13 6 -3 12 -11 12 -18z m-647 -12 c15 -15 16 -28 2 -28 -5 0 -10 6 -10 14
0 8 -6 17 -12 19 -7 3 -8 6 -2 6 5 1 15 -4 22 -11z m552 -30 c0 6 5 12 10 12
6 0 10 -9 10 -20 0 -18 -3 -19 -20 -10 -11 6 -20 16 -20 23 0 7 4 6 10 -3 6
-10 10 -11 10 -2z m1848 -13 c-3 -3 -9 2 -12 12 -6 14 -5 15 5 6 7 -7 10 -15
7 -18z m-1984 -6 c-3 -5 2 -9 10 -9 20 0 20 -7 2 -26 -19 -19 -30 -18 -22 2 3
8 1 24 -4 34 -8 16 -8 18 5 14 8 -3 12 -10 9 -15z m1820 6 c-4 -8 -10 -15 -15
-15 -5 0 -9 7 -9 15 0 8 7 15 15 15 9 0 12 -6 9 -15z m-1874 1 c0 -3 -4 -8
-10 -11 -5 -3 -10 -1 -10 4 0 6 5 11 10 11 6 0 10 -2 10 -4z m-90 -16 c0 -5
-4 -10 -10 -10 -5 0 -10 5 -10 10 0 6 5 10 10 10 6 0 10 -4 10 -10z m1905 -9
c-3 -6 -11 -8 -17 -5 -6 4 -5 9 3 15 16 10 23 4 14 -10z m2711 8 c8 -14 -11
-33 -25 -25 -11 7 -4 36 9 36 5 0 12 -5 16 -11z m-2616 -55 c0 -8 -6 -14 -14
-14 -9 0 -12 7 -9 20 6 22 23 18 23 -6z m-1960 -15 c0 -5 -7 -6 -15 -3 -8 4
-15 13 -15 21 0 13 3 13 15 3 8 -7 15 -16 15 -21z m1994 -2 c7 -6 6 -7 -4 -4
-8 2 -16 12 -17 23 -2 13 -1 15 4 4 3 -8 11 -19 17 -23z m251 23 c3 -5 1 -10
-4 -10 -6 0 -11 5 -11 10 0 6 2 10 4 10 3 0 8 -4 11 -10z m115 -10 c0 -5 -2
-10 -4 -10 -3 0 -8 5 -11 10 -3 6 -1 10 4 10 6 0 11 -4 11 -10z m-2522 -17
c-4 -22 -22 -20 -26 1 -2 10 3 16 13 16 10 0 15 -7 13 -17z m-1173 -3 c3 -5 1
-10 -4 -10 -6 0 -11 5 -11 10 0 6 2 10 4 10 3 0 8 -4 11 -10z m3400 0 c3 -6
-1 -7 -9 -4 -18 7 -21 14 -7 14 6 0 13 -4 16 -10z m1310 1 c3 -5 1 -12 -5 -16
-5 -3 -10 1 -10 9 0 18 6 21 15 7z m-3754 -23 c11 -21 11 -22 -4 -9 -10 7 -17
17 -17 22 0 15 9 10 21 -13z m2499 12 c0 -5 -4 -10 -10 -10 -5 0 -10 5 -10 10
0 6 5 10 10 10 6 0 10 -4 10 -10z m1010 6 c0 -3 -4 -8 -10 -11 -5 -3 -10 -1
-10 4 0 6 5 11 10 11 6 0 10 -2 10 -4z m-3925 -15 c3 -5 1 -12 -5 -16 -5 -3
-10 1 -10 9 0 18 6 21 15 7z m745 -21 c0 -5 -5 -10 -11 -10 -5 0 -7 5 -4 10 3
6 8 10 11 10 2 0 4 -4 4 -10z m2150 -5 c7 -9 8 -15 2 -15 -5 0 -12 7 -16 15
-3 8 -4 15 -2 15 2 0 9 -7 16 -15z m-30 -10 c0 -11 -29 -11 -33 -1 -4 10 1 12
14 9 10 -3 19 -7 19 -8z m-2240 1 c0 -3 -4 -8 -10 -11 -5 -3 -10 -1 -10 4 0 6
5 11 10 11 6 0 10 -2 10 -4z m2780 -6 c0 -5 -2 -10 -4 -10 -3 0 -8 5 -11 10
-3 6 -1 10 4 10 6 0 11 -4 11 -10z m-2735 -10 c-3 -5 -10 -10 -16 -10 -5 0 -9
5 -9 10 0 6 7 10 16 10 8 0 12 -4 9 -10z m-135 -20 c0 -11 -4 -20 -10 -20 -5
0 -10 9 -10 20 0 11 5 20 10 20 6 0 10 -9 10 -20z m171 -3 c-10 -9 -11 -8 -5
6 3 10 9 15 12 12 3 -3 0 -11 -7 -18z m69 -2 c-7 -9 -15 -13 -18 -10 -3 2 1
11 8 20 7 9 15 13 18 10 3 -2 -1 -11 -8 -20z m-40 -15 c0 -5 -4 -10 -10 -10
-5 0 -10 5 -10 10 0 6 5 10 10 10 6 0 10 -4 10 -10z m-570 -4 c0 -3 -4 -8 -10
-11 -5 -3 -10 -1 -10 4 0 6 5 11 10 11 6 0 10 -2 10 -4z m545 -26 c-3 -5 -11
-10 -16 -10 -6 0 -7 5 -4 10 3 6 11 10 16 10 6 0 7 -4 4 -10z m2240 1 c3 -5 1
-12 -5 -16 -5 -3 -10 1 -10 9 0 18 6 21 15 7z m1895 4 c0 -3 -24 -34 -52 -68
-29 -35 -63 -77 -76 -93 -13 -16 -20 -23 -17 -16 15 30 -8 6 -68 -72 -99 -128
-102 -133 -86 -153 8 -9 65 -41 127 -71 61 -29 112 -58 112 -64 0 -13 -29 -3
-134 48 -49 24 -97 44 -105 43 -10 0 -48 -55 -96 -136 -44 -75 -95 -156 -112
-180 -18 -24 -33 -46 -33 -48 0 -3 -31 -53 -70 -110 -38 -57 -70 -108 -70
-113 0 -5 -7 -15 -15 -22 -24 -20 -19 18 9 59 116 177 178 275 205 326 18 33
55 96 82 139 27 44 49 85 49 93 0 7 -11 13 -24 13 -27 0 -56 -24 -56 -46 0 -8
-7 -17 -15 -20 -9 -4 -13 -14 -11 -23 6 -21 -60 -66 -71 -48 -21 33 -41 39
-72 22 -29 -15 -31 -14 -31 3 0 10 6 24 13 30 13 14 18 64 5 56 -4 -3 -41 -46
-82 -97 -66 -83 -149 -167 -163 -167 -19 0 18 77 92 188 80 123 106 171 151
286 l19 50 85 17 c47 9 148 42 225 74 265 107 285 114 285 100z m-5615 -144
c164 -29 167 -31 189 -86 40 -102 74 -173 131 -265 76 -124 118 -200 111 -200
-3 0 -40 36 -82 79 -66 70 -82 81 -125 90 -71 15 -74 15 -84 -21 -6 -18 -13
-31 -16 -28 -3 3 -13 -1 -22 -9 -14 -11 -18 -11 -23 3 -3 9 -10 13 -15 10 -13
-8 -11 -42 5 -67 7 -12 26 -51 42 -87 16 -36 50 -99 76 -140 50 -79 62 -109
28 -69 -20 23 -20 22 1 -21 12 -25 33 -62 46 -83 14 -22 23 -41 20 -43 -6 -6
-96 125 -138 201 -18 33 -70 114 -115 180 -44 66 -98 152 -119 191 l-38 72
-64 -30 c-35 -17 -66 -28 -69 -25 -6 6 78 57 94 57 27 0 31 36 8 76 -37 65
-137 196 -191 249 -115 115 -121 112 91 41 104 -34 221 -68 259 -75z m1440
125 c12 -12 12 -15 -2 -20 -9 -4 -18 -4 -21 -1 -3 3 1 5 8 5 9 0 7 5 -6 15
-12 9 -14 14 -6 15 7 0 20 -6 27 -14z m-40 -26 c17 -19 17 -20 1 -20 -9 0 -14
5 -11 10 3 6 1 10 -4 10 -6 0 -11 5 -11 10 0 14 5 13 25 -10z m2439 1 c-22
-21 -27 -21 -18 3 3 9 13 16 22 16 13 0 12 -3 -4 -19z m56 15 c0 -3 -4 -8 -10
-11 -5 -3 -10 -1 -10 4 0 6 5 11 10 11 6 0 10 -2 10 -4z m-2660 -20 c0 -8 -4
-18 -10 -21 -5 -3 -10 3 -10 14 0 12 5 21 10 21 6 0 10 -6 10 -14z m1470 -122
c75 -93 196 -267 221 -317 16 -29 23 -36 29 -26 11 16 12 15 39 -38 23 -45 27
-68 11 -58 -20 12 -9 -13 36 -80 72 -109 94 -168 50 -140 -23 15 -25 15 -58
-32 -156 -215 -345 -554 -365 -653 l-6 -35 29 19 c39 26 59 49 95 113 29 51
49 67 49 41 0 -7 -14 -35 -30 -63 -33 -56 -37 -70 -15 -62 23 9 28 -11 11 -38
-9 -14 -12 -25 -7 -25 5 0 13 5 16 10 4 6 11 7 17 4 7 -4 8 2 3 17 -6 18 -4
21 5 13 23 -22 120 17 120 48 0 13 -17 9 -34 -7 -9 -9 -17 -11 -21 -5 -3 5 -2
10 3 10 6 0 12 7 16 15 5 13 2 13 -19 -1 -14 -9 -25 -21 -25 -26 0 -6 -8 -7
-17 -4 -9 4 -20 1 -24 -6 -18 -28 -20 4 -3 39 16 33 19 35 22 16 4 -26 10 -28
34 -9 17 12 17 14 -2 31 -24 22 -25 38 -5 55 12 10 15 10 15 -4 0 -9 5 -16 10
-16 6 0 10 4 10 9 0 13 73 111 79 106 2 -3 -3 -13 -11 -22 -19 -22 -48 -78
-48 -92 0 -6 25 5 55 25 31 19 60 32 65 29 15 -9 52 5 47 18 -2 7 6 19 18 27
13 8 47 31 76 51 30 20 60 43 68 52 15 19 51 23 51 7 0 -42 -111 -202 -173
-251 -52 -41 -82 -80 -36 -46 13 10 36 23 50 30 62 29 120 98 149 177 26 72
35 90 48 95 8 3 11 0 7 -8 -4 -6 2 -2 13 11 21 23 48 31 36 10 -4 -7 2 -5 13
5 11 9 24 17 30 17 6 0 13 6 16 14 4 10 -8 15 -51 19 -79 8 -178 32 -166 40 6
3 103 2 215 -3 310 -15 406 -16 502 -6 l89 9 -14 -22 c-7 -12 -49 -40 -93 -63
-110 -56 -219 -120 -223 -130 -2 -4 -8 -5 -13 -2 -6 3 -21 -6 -34 -20 -13 -14
-30 -24 -37 -21 -27 10 -522 -274 -541 -311 -12 -22 -131 -105 -207 -144 -22
-11 -40 -25 -40 -30 0 -6 34 -10 78 -11 42 0 100 -7 127 -14 l50 -13 -43 -1
c-26 -1 -41 -5 -37 -11 3 -5 0 -11 -7 -11 -49 -6 112 -16 175 -12 42 3 77 3
77 0 0 -3 -30 -10 -67 -16 -129 -22 -173 -32 -173 -42 0 -6 -7 -17 -15 -26 -9
-8 -15 -16 -13 -17 2 -2 53 1 113 5 73 5 129 15 165 29 50 19 174 53 241 67
28 5 28 5 82 -74 12 -18 57 -84 100 -145 43 -62 134 -198 202 -303 68 -104
133 -202 144 -217 29 -36 27 -48 -6 -38 -71 21 -439 211 -664 343 -53 30 -114
63 -135 72 l-39 16 30 -26 c20 -17 -15 -3 -105 41 -74 37 -162 77 -195 90 -33
12 -87 35 -120 49 -104 47 -107 48 -95 24 6 -11 9 -28 6 -37 -6 -18 66 -156
98 -187 16 -17 22 -45 9 -45 -9 1 -101 119 -155 199 -38 56 -52 56 -23 1 8
-16 20 -53 26 -82 14 -64 183 -400 264 -524 32 -49 74 -104 93 -123 l36 -34
-23 -41 c-13 -22 -52 -97 -88 -166 -36 -69 -80 -147 -98 -175 -18 -27 -51 -84
-74 -125 -23 -41 -55 -91 -71 -110 l-30 -35 14 40 c7 22 41 91 75 153 34 62
93 177 130 255 38 78 81 159 95 179 19 28 22 39 12 45 -22 14 -120 137 -156
196 -19 31 -38 57 -42 57 -4 0 -8 6 -8 14 0 8 -3 16 -7 18 -5 2 -28 43 -53 92
l-45 89 -13 -59 c-8 -32 -16 -99 -17 -147 -2 -49 -6 -92 -9 -95 -3 -3 -6 6 -6
19 l-1 24 -13 -25 c-16 -28 -14 -112 3 -118 12 -4 15 -48 4 -55 -5 -2 -3 -2 4
-1 7 2 15 -1 18 -6 4 -6 2 -10 -3 -10 -5 0 -14 -12 -21 -26 l-12 -27 28 19
c46 30 115 65 108 54 -3 -5 -32 -28 -65 -51 -35 -24 -65 -55 -75 -76 -20 -42
-34 -253 -35 -515 l0 -178 -29 0 -28 0 1 313 c1 342 1 342 -62 410 -29 31 -13
38 18 7 10 -10 21 -16 23 -12 4 6 3 192 -1 320 -1 29 -6 51 -11 48 -7 -5 -15
40 -27 154 -2 19 -7 58 -12 85 l-7 50 -30 -70 c-16 -38 -36 -81 -46 -95 -9
-14 -33 -56 -52 -95 -37 -72 -66 -120 -150 -244 -26 -39 -50 -78 -53 -86 -4
-9 11 -38 36 -71 70 -93 180 -295 271 -499 97 -217 44 -143 -107 150 -104 202
-208 369 -247 396 -5 4 9 30 32 59 87 110 292 498 345 654 28 81 29 110 2 57
-18 -34 -106 -161 -111 -161 -3 0 -2 8 1 18 3 9 -6 -3 -19 -28 -33 -62 -172
-278 -205 -317 -46 -56 -44 -36 3 33 25 36 45 67 45 70 0 3 9 15 21 27 18 19
169 317 169 333 0 4 11 22 25 40 14 18 25 36 25 41 0 4 -4 4 -8 -2 -4 -5 -20
-21 -36 -35 l-30 -25 23 39 c19 34 20 38 4 31 -10 -4 -31 -11 -48 -16 -16 -5
-48 -18 -71 -28 -23 -11 -55 -23 -70 -27 -16 -4 -35 -11 -41 -17 -9 -6 -13 -6
-13 2 0 6 -5 11 -11 11 -5 0 -7 -4 -4 -10 3 -5 1 -10 -6 -10 -7 0 -20 -6 -28
-14 -9 -8 -33 -21 -55 -30 -31 -13 -37 -13 -33 -2 5 13 1 13 -28 0 -36 -15
-230 -115 -280 -144 -16 -10 -77 -43 -135 -73 -58 -30 -137 -75 -176 -100 -39
-24 -86 -53 -105 -63 l-34 -18 30 -8 c28 -7 27 -7 -6 -4 -25 3 -49 -3 -79 -20
-55 -32 -84 -32 -74 -1 3 12 10 27 15 33 17 21 139 248 139 258 0 6 5 4 10 -4
8 -12 10 -9 10 11 0 23 30 65 30 43 0 -12 144 208 145 221 0 6 7 10 15 10 8 0
15 7 15 15 1 26 56 99 86 114 l28 14 -18 -36 c-11 -21 -42 -68 -69 -107 -147
-206 -332 -495 -317 -495 2 0 26 14 52 30 26 17 51 30 56 30 4 0 34 17 65 38
31 21 100 62 152 92 52 29 113 65 135 79 22 14 49 31 60 37 11 6 18 17 17 25
-2 8 -1 11 3 8 3 -4 26 14 50 40 25 25 45 41 45 35 0 -6 -13 -21 -30 -34 -16
-13 -30 -28 -30 -34 0 -5 18 8 40 29 22 21 40 35 40 30 0 -12 40 26 52 50 8
15 3 13 -19 -7 -16 -16 -32 -28 -36 -28 -4 0 8 14 28 31 19 17 42 44 51 58 24
40 69 60 151 67 l72 7 -16 23 c-9 14 -25 24 -38 24 -13 0 -32 3 -42 7 -15 6
-13 9 12 14 18 5 2 6 -40 5 -38 -2 -53 -1 -32 1 20 2 35 8 32 14 -4 5 12 9 35
9 32 0 41 3 37 14 -4 10 8 18 44 26 59 14 58 21 -6 30 -5 1 -1 5 10 9 11 4 35
4 55 0 38 -9 80 -2 80 12 0 5 -4 9 -10 9 -5 0 -10 4 -10 9 0 5 10 7 23 4 18
-4 17 -1 -8 14 -16 11 -39 23 -50 27 -29 10 -85 50 -85 59 0 5 5 5 12 1 7 -4
8 -3 4 5 -4 6 -26 21 -49 32 -61 31 -253 141 -397 227 -69 42 -195 112 -280
157 -85 44 -182 99 -214 121 -33 21 -69 45 -80 52 -18 12 -15 13 24 5 56 -10
347 -10 545 0 117 6 145 5 128 -4 -13 -7 -23 -16 -23 -22 0 -5 -7 -7 -15 -4
-8 4 -17 2 -20 -3 -4 -6 -17 -10 -31 -10 -31 0 -32 -30 -1 -50 29 -19 76 -30
83 -19 8 14 32 11 76 -11 46 -22 62 -25 53 -10 -4 6 -11 8 -16 5 -5 -4 -9 -1
-9 4 0 7 21 10 53 10 28 -1 42 -4 30 -6 -12 -2 -24 -10 -27 -18 -7 -19 44 -29
101 -20 47 7 65 -1 85 -38 10 -19 9 -19 -13 -3 -13 9 -43 16 -69 16 -33 0 -41
-3 -30 -10 8 -5 23 -10 33 -10 9 0 35 -11 57 -25 22 -14 44 -25 49 -25 5 0 35
-27 67 -60 83 -87 97 -81 39 16 -36 59 -45 86 -22 62 25 -25 179 -233 193
-260 31 -61 28 -22 -8 92 -36 111 -201 438 -273 540 -37 52 -70 100 -72 107
-3 7 -16 16 -29 19 -13 3 -24 10 -24 14 0 4 30 50 67 101 36 51 94 140 129
198 34 58 82 138 107 176 24 39 58 97 76 130 34 65 96 143 105 134 9 -9 -6
-139 -16 -139 -5 0 -7 4 -4 8 2 4 1 14 -3 21 -9 14 -58 -57 -86 -122 -20 -48
-164 -276 -211 -332 -20 -24 -37 -50 -38 -58 -1 -7 -16 -37 -34 -65 -39 -60
-41 -55 54 -179 70 -92 165 -262 195 -350 22 -64 45 -100 56 -89 8 7 9 12 11
54 1 13 5 21 10 19 8 -6 8 -5 12 145 2 108 19 142 21 45 l2 -52 7 45 c5 25 7
127 5 228 -2 100 0 195 5 210 5 15 14 135 20 267 6 132 13 269 16 305 l6 64
32 -36 c17 -19 56 -67 86 -104z m-1403 109 c-4 -3 -2 -12 4 -19 8 -10 1 -15
-30 -24 -23 -6 -41 -14 -41 -18 0 -4 -11 -7 -23 -7 -18 0 -23 5 -19 18 5 19
32 24 32 5 0 -6 7 -4 18 5 10 10 22 14 26 10 4 -4 9 3 13 15 3 12 10 22 16 22
6 0 7 -3 4 -7z m2574 -26 c-10 -9 -11 -8 -5 6 3 10 9 15 12 12 3 -3 0 -11 -7
-18z m-2701 -9 c0 -4 -4 -8 -9 -8 -6 0 -12 4 -15 8 -3 5 1 9 9 9 8 0 15 -4 15
-9z m-60 -2 c0 -3 -4 -8 -10 -11 -5 -3 -10 -1 -10 4 0 6 5 11 10 11 6 0 10 -2
10 -4z m2813 -13 c-7 -2 -9 -12 -5 -21 5 -16 5 -16 -11 0 -22 21 -21 24 6 25
12 0 17 -1 10 -4z m2672 -13 c3 -5 -1 -10 -9 -10 -9 0 -16 5 -16 10 0 6 4 10
9 10 6 0 13 -4 16 -10z m-2615 -19 c0 -26 -16 -35 -24 -15 -10 25 -7 34 9 34
8 0 15 -9 15 -19z m-5260 -1 c0 -5 -4 -10 -10 -10 -5 0 -10 5 -10 10 0 6 5 10
10 10 6 0 10 -4 10 -10z m5287 -12 c-3 -8 -6 -5 -6 6 -1 11 2 17 5 13 3 -3 4
-12 1 -19z m-3582 2 c3 -5 1 -10 -4 -10 -6 0 -11 5 -11 10 0 6 2 10 4 10 3 0
8 -4 11 -10z m3610 -10 c-5 -14 -2 -20 9 -20 9 0 16 -4 16 -10 0 -14 -16 -12
-29 4 -6 7 -9 21 -5 30 9 23 17 20 9 -4z m-2985 1 c0 -5 -7 -11 -14 -14 -10
-4 -13 -1 -9 9 6 15 23 19 23 5z m97 -13 c-3 -8 -6 -5 -6 6 -1 11 2 17 5 13 3
-3 4 -12 1 -19z m3067 -14 c8 -21 8 -24 -3 -24 -5 0 -11 9 -14 20 -6 24 8 27
17 4z m-3264 -4 c0 -5 -4 -10 -10 -10 -5 0 -10 5 -10 10 0 6 5 10 10 10 6 0
10 -4 10 -10z m-75 -10 c3 -5 1 -10 -4 -10 -6 0 -11 5 -11 10 0 6 2 10 4 10 3
0 8 -4 11 -10z m-235 -10 c0 -5 -2 -10 -4 -10 -3 0 -8 5 -11 10 -3 6 -1 10 4
10 6 0 11 -4 11 -10z m-1670 -184 c5 -124 9 -158 24 -180 10 -16 23 -25 32
-22 9 3 20 -6 29 -25 9 -16 26 -34 38 -38 12 -5 82 -12 156 -16 182 -10 218
-23 66 -24 -148 -1 -233 -14 -250 -38 -16 -21 -8 -38 42 -94 47 -52 30 -49
-43 7 l-59 46 -13 -53 c-8 -30 -16 -106 -20 -169 -4 -92 -7 -107 -13 -75 -4
22 -9 69 -9 105 -3 103 -21 174 -46 178 -11 2 -28 -6 -39 -18 -28 -31 -36 -24
-14 14 19 32 19 37 4 59 -13 21 -25 25 -98 30 -45 4 -120 7 -167 7 -129 1 -76
17 75 23 122 4 185 18 185 39 0 5 -37 44 -82 86 -236 222 -240 233 -22 54
l138 -113 18 23 c32 40 37 63 44 213 4 80 10 143 13 139 3 -3 8 -74 11 -158z
m5250 154 c0 -5 -4 -10 -10 -10 -5 0 -10 5 -10 10 0 6 5 10 10 10 6 0 10 -4
10 -10z m-3192 -25 c-3 -3 -9 2 -12 12 -6 14 -5 15 5 6 7 -7 10 -15 7 -18z
m3087 15 c-4 -6 -1 -17 5 -25 15 -18 6 -19 -21 -5 -10 6 -19 15 -19 21 0 6 4
8 9 4 5 -3 12 -1 16 5 3 5 8 10 11 10 3 0 2 -5 -1 -10z m50 0 c3 -5 1 -10 -4
-10 -6 0 -11 5 -11 10 0 6 2 10 4 10 3 0 8 -4 11 -10z m451 -37 c-3 -4 -6 -1
-6 6 0 7 -4 9 -10 6 -6 -3 -10 4 -10 17 l0 22 16 -22 c9 -13 13 -26 10 -29z
m-3786 27 c0 -5 -2 -10 -4 -10 -3 0 -8 5 -11 10 -3 6 -1 10 4 10 6 0 11 -4 11
-10z m6180 -20 c0 -5 -4 -10 -10 -10 -5 0 -10 5 -10 10 0 6 5 10 10 10 6 0 10
-4 10 -10z m-4520 -21 c0 -5 -4 -9 -10 -9 -5 0 -10 7 -10 16 0 8 5 12 10 9 6
-3 10 -10 10 -16z m-1675 1 c3 -5 -1 -10 -9 -10 -9 0 -16 5 -16 10 0 6 4 10 9
10 6 0 13 -4 16 -10z m3475 -19 c0 -12 -20 -25 -27 -18 -7 7 6 27 18 27 5 0 9
-4 9 -9z m-3760 -5 c0 -2 -7 -7 -16 -10 -8 -3 -12 -2 -9 4 6 10 25 14 25 6z
m3903 -21 c-3 -9 -8 -14 -10 -11 -3 3 -2 9 2 15 9 16 15 13 8 -4z m247 -6 c0
-6 -4 -7 -10 -4 -5 3 -10 11 -10 16 0 6 5 7 10 4 6 -3 10 -11 10 -16z m-3849
-5 c10 -13 10 -17 -1 -24 -16 -10 -39 10 -33 27 7 17 18 16 34 -3z m-221 2 c0
-3 -4 -8 -10 -11 -5 -3 -10 -1 -10 4 0 6 5 11 10 11 6 0 10 -2 10 -4z m3710
-26 c0 -5 -4 -10 -10 -10 -5 0 -10 5 -10 10 0 6 5 10 10 10 6 0 10 -4 10 -10z
m75 -20 c-3 -5 1 -10 9 -10 9 0 16 4 16 9 0 6 9 9 19 8 12 -1 19 -8 18 -18 -1
-10 -5 -15 -9 -13 -4 3 -8 0 -8 -6 0 -13 -48 -5 -64 10 -10 10 0 30 15 30 6 0
7 -4 4 -10z m-35 -4 c0 -2 -7 -7 -16 -10 -8 -3 -12 -2 -9 4 6 10 25 14 25 6z
m-3670 -30 c0 -8 -5 -18 -11 -22 -14 -8 -33 11 -25 25 10 16 36 13 36 -3z
m3760 -20 c0 -3 -4 -8 -10 -11 -5 -3 -10 -1 -10 4 0 6 5 11 10 11 6 0 10 -2
10 -4z m2570 -35 c0 -6 -4 -13 -10 -16 -5 -3 -10 1 -10 9 0 9 5 16 10 16 6 0
10 -4 10 -9z m-4727 -95 c-12 -21 -84 -98 -88 -94 -2 2 17 27 42 56 44 51 62
66 46 38z m4867 -136 c0 -5 -4 -10 -10 -10 -5 0 -10 5 -10 10 0 6 5 10 10 10
6 0 10 -4 10 -10z m-1182 -49 c3 -8 -1 -12 -9 -9 -7 2 -15 10 -17 17 -3 8 1
12 9 9 7 -2 15 -10 17 -17z m-7748 -12 c0 -5 -4 -9 -10 -9 -5 0 -10 7 -10 16
0 8 5 12 10 9 6 -3 10 -10 10 -16z m1050 17 c0 -3 -4 -8 -10 -11 -5 -3 -10 -1
-10 4 0 6 5 11 10 11 6 0 10 -2 10 -4z m6440 -110 c0 -8 -4 -17 -9 -21 -12 -7
-24 12 -16 25 9 15 25 12 25 -4z m-1190 -381 l0 -363 -30 -30 c-29 -29 -40
-62 -21 -62 5 0 22 5 38 11 33 14 83 13 98 -2 6 -6 2 -12 -14 -16 -17 -4 -19
-8 -9 -14 10 -7 7 -13 -12 -26 -14 -10 -42 -33 -63 -52 -38 -34 -117 -59 -141
-44 -6 4 -20 6 -31 5 -20 -3 -20 -2 -1 13 11 8 28 15 38 15 24 0 23 10 -7 50
-14 19 -25 40 -25 47 0 14 31 33 56 33 31 0 83 48 88 83 3 17 7 176 8 353 l3
320 -33 -23 c-19 -12 -87 -50 -153 -83 -65 -33 -123 -69 -129 -80 -14 -26 -13
-93 1 -85 7 5 9 -8 5 -41 -4 -34 -3 -43 3 -29 12 26 14 -7 17 -365 7 -810 11
-955 27 -986 17 -32 133 -149 184 -186 18 -13 53 -38 79 -57 l47 -34 -6 58
c-3 32 -2 54 2 49 5 -5 12 -40 16 -79 l7 -69 -33 27 c-39 31 -243 159 -318
200 -29 15 -55 37 -60 50 -4 12 -12 303 -16 647 -4 344 -10 693 -14 775 -4 83
-5 155 -3 161 3 12 383 201 395 196 4 -2 7 -167 7 -367z m-3828 329 c34 -20
101 -52 148 -71 113 -45 166 -78 173 -105 4 -12 4 -94 1 -182 -2 -89 -11 -433
-20 -765 -8 -333 -18 -611 -22 -618 -6 -11 -186 -133 -196 -133 -1 0 -49 -31
-107 -69 -57 -39 -106 -68 -109 -65 -6 7 60 63 130 110 30 21 69 51 87 67 17
16 36 26 42 23 12 -8 71 23 71 36 0 5 -12 1 -27 -8 -24 -14 -23 -12 7 17 31
29 36 40 41 99 l6 65 2 -75 c2 -63 4 -70 12 -45 9 31 27 1232 21 1427 l-3 107
-62 38 c-34 21 -96 56 -137 77 -41 22 -88 48 -104 59 -29 20 -29 20 -21 1 10
-23 24 -126 18 -136 -2 -4 -5 -115 -7 -247 -2 -148 -8 -246 -15 -257 -8 -14
-10 74 -11 334 0 203 4 352 9 352 5 0 38 -16 73 -36z m1805 -71 c-2 -16 -4 -3
-4 27 0 30 2 43 4 28 2 -16 2 -40 0 -55z m-377 -78 c43 -62 37 -66 -10 -6 -23
28 -50 57 -60 64 -11 6 -20 16 -20 20 0 17 61 -36 90 -78z m4765 55 c3 -5 1
-10 -4 -10 -6 0 -11 5 -11 10 0 6 2 10 4 10 3 0 8 -4 11 -10z m-3815 -33 c0
-2 -19 -21 -41 -42 -26 -25 -37 -32 -30 -18 13 25 71 74 71 60z m-3119 -24
c13 -16 12 -17 -3 -4 -10 7 -18 15 -18 17 0 8 8 3 21 -13z m1984 -3 c3 -6 -1
-7 -9 -4 -18 7 -21 14 -7 14 6 0 13 -4 16 -10z m-684 -185 c45 -66 101 -143
124 -171 60 -70 255 -361 255 -380 0 -3 -10 -4 -22 -2 -16 2 -37 28 -74 93
-28 50 -99 153 -157 230 -105 140 -130 179 -203 310 -72 130 -47 104 77 -80z
m4814 145 c3 -5 1 -10 -4 -10 -6 0 -11 5 -11 10 0 6 2 10 4 10 3 0 8 -4 11
-10z m-2096 -62 c-33 -66 -292 -467 -369 -571 -42 -57 -90 -90 -107 -74 -3 4
2 16 13 26 11 10 51 70 88 133 37 63 96 150 132 193 35 44 80 109 99 145 58
106 74 133 85 142 7 5 7 4 0 -4 -5 -7 -10 -16 -10 -20 0 -15 56 32 74 63 30
51 27 31 -5 -33z m-4489 8 c218 -47 420 -124 483 -184 27 -26 95 -112 167
-215 l34 -48 -29 -23 -29 -23 -32 73 c-17 40 -43 93 -58 118 -25 42 -30 46
-65 46 -34 0 -38 -3 -34 -20 3 -11 13 -20 22 -20 9 -1 27 -7 40 -14 23 -13 18
-14 -56 -17 -45 -2 -85 -7 -88 -11 -15 -15 6 -55 61 -116 31 -35 54 -65 51
-68 -7 -7 -138 124 -191 189 -27 35 -41 46 -49 38 -6 -6 -16 -11 -21 -11 -6 0
-2 7 9 15 18 15 17 17 -25 61 -25 25 -58 54 -75 64 -16 10 -39 35 -50 55 -11
22 -44 54 -77 76 -32 22 -58 42 -58 44 0 6 -4 7 70 -9z m6111 -122 c-77 -74
-143 -145 -147 -157 -4 -11 -12 -26 -18 -32 -6 -6 -49 -57 -95 -113 -46 -56
-86 -102 -87 -102 -5 0 46 83 81 131 l29 41 -33 30 c-24 22 -41 29 -65 27 -34
-3 -60 7 -51 21 3 4 -7 5 -22 1 -18 -4 -34 -19 -43 -39 -8 -17 -23 -32 -32
-32 -14 0 -18 -9 -18 -40 0 -39 0 -39 -27 -29 -22 8 -30 7 -40 -7 -7 -10 -10
-20 -7 -23 3 -3 9 0 13 8 6 10 10 9 15 -4 3 -10 1 -24 -5 -31 -13 -16 -69 -19
-69 -4 0 6 29 59 64 118 35 59 70 120 77 137 8 16 28 36 44 44 144 70 480 190
533 191 l44 0 -141 -136z m-2555 53 c8 -5 12 -13 8 -18 -10 -18 -45 28 -37 48
7 17 8 17 11 -2 2 -11 11 -24 18 -28z m-4506 3 c0 -5 -4 -10 -10 -10 -5 0 -10
5 -10 10 0 6 5 10 10 10 6 0 10 -4 10 -10z m7580 -10 c0 -5 -5 -10 -11 -10 -5
0 -7 5 -4 10 3 6 8 10 11 10 2 0 4 -4 4 -10z m167 4 c-3 -3 -12 -4 -19 -1 -8
3 -5 6 6 6 11 1 17 -2 13 -5z m58 -42 c-3 -3 -11 0 -18 7 -9 10 -8 11 6 5 10
-3 15 -9 12 -12z m-200 -2 c3 -5 -1 -10 -10 -10 -9 0 -13 5 -10 10 3 6 8 10
10 10 2 0 7 -4 10 -10z m125 -22 c0 -16 -3 -19 -11 -11 -6 6 -8 16 -5 22 11
17 16 13 16 -11z m-7416 -21 c16 -22 18 -32 10 -45 -17 -26 -46 -25 -79 4
l-29 27 29 23 c35 28 42 27 69 -9z m7551 3 c-5 -12 -4 -13 6 -2 7 6 17 12 22
12 18 0 -56 -87 -131 -153 -20 -19 -20 -18 -18 30 2 58 17 88 56 111 36 23 73
24 65 2z m-308 -14 c-7 -13 -15 -22 -19 -20 -8 5 13 44 23 44 4 0 2 -11 -4
-24z m90 2 c-3 -8 -6 -5 -6 6 -1 11 2 17 5 13 3 -3 4 -12 1 -19z m720 6 c-3
-3 -12 -4 -19 -1 -8 3 -5 6 6 6 11 1 17 -2 13 -5z m-3367 -53 c-25 -22 -61
-44 -80 -51 -19 -6 -42 -14 -50 -16 -8 -3 -4 4 10 15 14 11 29 21 33 21 4 0
31 16 60 35 69 46 83 44 27 -4z m2515 29 c3 -5 1 -10 -4 -10 -6 0 -11 5 -11
10 0 6 2 10 4 10 3 0 8 -4 11 -10z m-5098 -77 c-2 -16 -4 -5 -4 22 0 28 2 40
4 28 2 -13 2 -35 0 -50z m703 41 c0 -2 -9 0 -20 6 -11 6 -20 13 -20 16 0 2 9
0 20 -6 11 -6 20 -13 20 -16z m4350 18 c0 -13 -12 -22 -22 -16 -10 6 -1 24 13
24 5 0 9 -4 9 -8z m1495 -32 c3 -5 -1 -10 -9 -10 -9 0 -16 5 -16 10 0 6 4 10
9 10 6 0 13 -4 16 -10z m-964 -61 c9 -6 2 -9 -23 -7 -36 2 -37 3 -21 20 11 13
19 15 24 7 3 -6 13 -15 20 -20z m-8144 5 c-3 -3 -12 -4 -19 -1 -8 3 -5 6 6 6
11 1 17 -2 13 -5z m121 -55 c28 -22 52 -44 52 -48 0 -14 -29 -22 -57 -15 -21
6 -24 11 -21 40 4 32 2 34 -24 32 -15 -1 -28 -6 -28 -10 0 -4 -6 -8 -14 -8
-10 0 -14 10 -14 31 1 28 3 30 27 24 14 -4 50 -24 79 -46z m4862 47 c0 -2 -7
-7 -16 -10 -8 -3 -12 -2 -9 4 6 10 25 14 25 6z m-1522 -37 c30 -17 52 -32 49
-35 -2 -2 -30 11 -62 31 -72 43 -61 47 13 4z m4907 21 c-3 -5 -10 -10 -16 -10
-5 0 -9 5 -9 10 0 6 7 10 16 10 8 0 12 -4 9 -10z m-3105 -51 c-10 -18 -14 -19
-22 -8 -7 11 -9 9 -5 -7 2 -12 0 -28 -5 -35 -6 -10 -8 -3 -6 21 2 22 8 34 16
33 6 -2 12 5 12 15 0 10 3 22 8 26 12 13 14 -22 2 -45z m2940 42 c0 -5 -7 -12
-16 -15 -22 -9 -24 -8 -24 9 0 8 9 15 20 15 11 0 20 -4 20 -9z m-7400 -21 c0
-5 -4 -10 -10 -10 -5 0 -10 5 -10 10 0 6 5 10 10 10 6 0 10 -4 10 -10z m4041
-60 c-35 -33 -69 -60 -75 -60 -6 0 18 27 54 60 36 33 70 60 75 60 6 -1 -19
-28 -54 -60z m2719 56 c0 -3 -4 -8 -10 -11 -5 -3 -10 -1 -10 4 0 6 5 11 10 11
6 0 10 -2 10 -4z m546 -12 c-13 -9 -24 -10 -37 -4 -23 13 -32 13 -24 0 3 -5
-3 -10 -14 -10 -23 0 -37 16 -19 23 7 3 35 5 63 5 44 0 48 -1 31 -14z m84 -14
c0 -5 -9 -6 -20 -3 -11 3 -20 9 -20 13 0 5 9 6 20 3 11 -3 20 -9 20 -13z
m-710 0 c0 -5 -4 -10 -10 -10 -5 0 -10 5 -10 10 0 6 5 10 10 10 6 0 10 -4 10
-10z m1167 -6 c-3 -3 -12 -4 -19 -1 -8 3 -5 6 6 6 11 1 17 -2 13 -5z m-1042
-14 c3 -5 1 -10 -4 -10 -6 0 -11 5 -11 10 0 6 2 10 4 10 3 0 8 -4 11 -10z
m1002 4 c-3 -3 -12 -4 -19 -1 -8 3 -5 6 6 6 11 1 17 -2 13 -5z m153 2 c0 -3
-4 -8 -10 -11 -5 -3 -10 -1 -10 4 0 6 5 11 10 11 6 0 10 -2 10 -4z m80 -6 c0
-5 -4 -10 -10 -10 -5 0 -10 5 -10 10 0 6 5 10 10 10 6 0 10 -4 10 -10z m85
-10 c-3 -5 -12 -10 -18 -10 -7 0 -6 4 3 10 19 12 23 12 15 0z m-8229 -27 c-10
-10 -19 5 -10 18 6 11 8 11 12 0 2 -7 1 -15 -2 -18z m164 17 c0 -5 -4 -10 -10
-10 -5 0 -10 5 -10 10 0 6 5 10 10 10 6 0 10 -4 10 -10z m2770 -70 l35 -32
-47 33 c-27 18 -56 41 -65 53 -17 19 -17 19 12 -1 17 -12 46 -36 65 -53z
m3894 45 c3 -9 0 -15 -9 -15 -8 0 -15 7 -15 15 0 8 4 15 9 15 5 0 11 -7 15
-15z m366 0 c0 -8 -4 -15 -10 -15 -5 0 -10 7 -10 15 0 8 5 15 10 15 6 0 10 -7
10 -15z m1125 6 c3 -5 1 -12 -5 -16 -5 -3 -10 1 -10 9 0 18 6 21 15 7z m-7331
-32 c-8 -13 -24 -1 -24 18 0 13 3 13 15 3 8 -7 12 -16 9 -21z m5966 11 c0 -5
-4 -10 -10 -10 -5 0 -10 5 -10 10 0 6 5 10 10 10 6 0 10 -4 10 -10z m-6855
-20 c3 -5 1 -10 -4 -10 -6 0 -11 5 -11 10 0 6 2 10 4 10 3 0 8 -4 11 -10z
m6705 -10 c0 -5 -5 -10 -11 -10 -5 0 -7 5 -4 10 3 6 8 10 11 10 2 0 4 -4 4
-10z m-4953 -22 c-3 -8 -6 -5 -6 6 -1 11 2 17 5 13 3 -3 4 -12 1 -19z m4883
-8 c0 -11 -4 -20 -9 -20 -5 0 -11 9 -14 20 -3 13 0 20 9 20 8 0 14 -9 14 -20z
m-6849 -31 l-10 -24 0 26 c-1 14 2 29 6 33 12 12 14 -9 4 -35z m5973 18 c-3
-8 -12 -18 -20 -21 -11 -4 -11 0 2 20 18 26 28 27 18 1z m-4008 -75 c-12 -11
-15 5 -8 44 l7 39 3 -39 c2 -21 1 -41 -2 -44z m-1846 49 c0 -6 -4 -13 -10 -16
-5 -3 -10 1 -10 9 0 9 5 16 10 16 6 0 10 -4 10 -9z m3973 -68 c-7 -2 -19 -2
-25 0 -7 3 -2 5 12 5 14 0 19 -2 13 -5z m-4448 -13 c3 -5 2 -10 -4 -10 -5 0
-13 5 -16 10 -3 6 -2 10 4 10 5 0 13 -4 16 -10z m2312 -92 c-2 -18 -4 -4 -4
32 0 36 2 50 4 33 2 -18 2 -48 0 -65z m-2595 47 c0 -5 -5 -11 -11 -13 -6 -2
-11 4 -11 13 0 9 5 15 11 13 6 -2 11 -8 11 -13z m5978 1 c0 -2 -7 -7 -16 -10
-8 -3 -12 -2 -9 4 6 10 25 14 25 6z m-2280 -10 c0 -2 -9 -6 -20 -9 -11 -3 -18
-1 -14 4 5 9 34 13 34 5z m37 -2 c-3 -3 -12 -4 -19 -1 -8 3 -5 6 6 6 11 1 17
-2 13 -5z m-1297 -40 c0 -8 -4 -12 -10 -9 -5 3 -10 13 -10 21 0 8 5 12 10 9 6
-3 10 -13 10 -21z m1083 19 c-7 -2 -19 -2 -25 0 -7 3 -2 5 12 5 14 0 19 -2 13
-5z m2517 -3 c0 -10 -41 -30 -58 -30 -10 1 39 40 49 40 5 0 9 -5 9 -10z m75
-1 c10 -14 1 -21 -19 -13 -9 3 -13 10 -10 15 7 12 21 11 29 -2z m-2636 -53
c19 -15 28 -27 21 -31 -6 -4 -26 7 -46 24 -41 37 -22 42 25 7z m4349 -18 c-3
-7 -39 -32 -81 -54 -78 -42 -148 -88 -320 -209 -96 -67 -99 -70 -94 -101 5
-30 3 -33 -21 -32 -18 1 -76 -31 -172 -94 -186 -120 -265 -168 -280 -168 -16
0 28 35 150 119 103 70 211 161 192 161 -5 0 -7 10 -5 23 4 18 -2 25 -31 35
-20 7 -40 11 -46 7 -5 -3 -19 -1 -30 5 -13 7 -26 8 -33 2 -20 -15 -96 -30
-190 -38 -98 -8 -97 -7 -123 -96 -9 -27 -18 -48 -21 -44 -3 3 -1 18 5 34 14
41 -3 60 -46 51 -18 -4 -43 -15 -55 -25 l-21 -19 18 30 c35 57 57 74 85 69 18
-4 39 2 62 16 245 153 350 237 369 294 10 32 12 33 58 29 26 -2 148 0 272 5
349 14 362 14 358 0z m559 -18 c3 -16 12 -30 19 -30 21 0 17 -18 -7 -25 -17
-6 -19 -12 -13 -38 7 -34 -2 -32 -20 5 -7 14 -22 24 -39 26 -32 4 -31 25 1 30
15 2 22 10 22 26 0 45 28 49 37 6z m-7292 6 c83 0 169 4 192 7 42 7 42 7 61
-35 24 -55 89 -115 227 -209 116 -80 185 -113 215 -104 18 6 21 2 105 -115 33
-46 36 -51 14 -35 -14 11 -38 36 -53 56 -20 29 -35 39 -68 44 -32 6 -44 4 -53
-8 -9 -13 -13 -11 -27 12 -18 32 -50 42 -206 66 -114 17 -190 19 -211 6 -10
-6 -12 -19 -7 -45 8 -40 34 -64 206 -186 52 -37 108 -80 124 -94 56 -53 15
-37 -86 33 -197 136 -342 222 -365 218 -20 -4 -23 0 -23 32 0 20 -4 41 -8 47
-15 24 -221 171 -300 214 -45 25 -108 60 -139 78 l-58 33 155 -8 c85 -4 223
-8 305 -7z m1196 -68 c-2 -36 -6 -55 -10 -45 -5 14 -6 87 -2 115 1 2 4 1 9 -1
4 -3 5 -34 3 -69z m309 -75 l-5 -148 -3 134 c-2 119 0 161 10 161 2 0 1 -66
-2 -147z m1011 129 c-7 -2 -18 1 -23 6 -8 8 -4 9 13 5 13 -4 18 -8 10 -11z
m-4081 -116 c0 -11 -19 -15 -25 -6 -3 5 1 10 9 10 9 0 16 -2 16 -4z m4997 -53
c53 -51 61 -68 18 -39 -39 27 -55 43 -55 59 0 12 8 8 37 -20z m-552 -17 c-10
-6 -31 -22 -46 -36 -70 -67 -69 -66 -67 -37 1 15 6 27 10 27 4 0 8 5 8 11 0
14 41 48 58 49 6 0 12 -5 12 -11 0 -6 7 -3 16 6 9 9 19 13 23 9 3 -3 -3 -11
-14 -18z m5290 -56 c-3 -5 -10 -10 -16 -10 -5 0 -9 5 -9 10 0 6 7 10 16 10 8
0 12 -4 9 -10z m185 2 c0 -13 -12 -22 -22 -16 -10 6 -1 24 13 24 5 0 9 -4 9
-8z m-4495 -52 c3 -6 -1 -7 -9 -4 -18 7 -21 14 -7 14 6 0 13 -4 16 -10z m4125
-5 c-7 -9 -15 -13 -19 -10 -3 3 1 10 9 15 21 14 24 12 10 -5z m-8885 -45 c3
-5 1 -10 -4 -10 -6 0 -11 5 -11 10 0 6 2 10 4 10 3 0 8 -4 11 -10z m8905 0 c0
-5 -2 -10 -4 -10 -3 0 -8 5 -11 10 -3 6 -1 10 4 10 6 0 11 -4 11 -10z m-6817
-53 c4 -26 3 -46 -1 -43 -5 3 -7 -32 -5 -77 3 -59 1 -78 -6 -67 -17 24 -13
259 4 238 1 -2 5 -25 8 -51z m-2693 -14 c0 -25 -1 -26 -16 -11 -9 9 -13 21
-10 27 13 20 26 11 26 -16z m7844 -25 c21 -15 35 -28 29 -28 -12 0 -93 57 -93
66 0 6 13 -1 64 -38z m-5674 12 c0 -5 -4 -10 -9 -10 -6 0 -13 5 -16 10 -3 6 1
10 9 10 9 0 16 -4 16 -10z m4922 -62 c17 -17 22 -18 30 -7 6 9 7 -1 3 -31 -4
-25 -7 -55 -6 -67 1 -20 -65 -90 -76 -79 -11 11 9 43 37 60 37 21 31 36 -16
36 -31 0 -34 3 -34 29 0 17 4 32 9 35 4 3 12 20 16 38 4 19 9 27 12 19 3 -7
14 -22 25 -33z m2218 12 c0 -16 -4 -30 -10 -30 -11 0 -14 43 -3 53 11 12 13 8
13 -23z m-100 0 c-6 -11 -17 -20 -25 -20 -19 0 -19 5 1 24 22 23 37 20 24 -4z
m-7789 -4 c-13 -15 -111 -60 -117 -53 -5 4 105 65 120 66 5 1 3 -5 -3 -13z
m849 -50 c0 -30 -27 -17 -28 14 -1 26 1 28 14 16 8 -8 14 -22 14 -30z m4682
12 c-7 -7 -12 -8 -12 -2 0 14 12 26 19 19 2 -3 -1 -11 -7 -17z m2208 -2 c0 -8
6 -17 13 -20 6 -3 0 -4 -15 -1 -23 4 -25 2 -21 -16 5 -16 2 -20 -8 -15 -8 3
-22 9 -31 12 -25 9 -22 16 10 36 34 21 52 22 52 4z m391 -19 c-1 -12 -15 -9
-19 4 -3 6 1 10 8 8 6 -3 11 -8 11 -12z m-3691 -33 c0 -2 -7 -4 -15 -4 -8 0
-15 4 -15 10 0 5 7 7 15 4 8 -4 15 -8 15 -10z m3205 6 c-3 -5 -1 -10 5 -10 7
0 5 -7 -5 -16 -9 -9 -23 -13 -32 -9 -15 5 -15 7 -3 15 8 6 11 10 5 11 -5 0 -1
4 10 9 27 11 27 11 20 0z m-88 -16 c-3 -3 -12 -4 -19 -1 -8 3 -5 6 6 6 11 1
17 -2 13 -5z m-3316 -20 c-58 -18 -203 -30 -178 -14 19 12 118 27 182 28 l40
0 -44 -14z m-4971 -4 c0 -5 -4 -10 -10 -10 -5 0 -10 5 -10 10 0 6 5 10 10 10
6 0 10 -4 10 -10z m3277 -8 c105 -5 167 -12 175 -20 9 -9 -14 -12 -113 -11
-68 0 -146 4 -174 9 -27 5 -147 13 -265 17 -128 4 -203 10 -185 14 32 8 297 4
562 -9z m1493 -13 c0 -10 -66 -21 -178 -28 -93 -6 -154 1 -139 15 5 6 230 21
284 20 18 -1 33 -4 33 -7z m565 -19 c4 -6 -11 -7 -42 -3 -63 8 -67 13 -10 13
25 0 49 -4 52 -10z m2462 -12 c-3 -8 -6 -5 -6 6 -1 11 2 17 5 13 3 -3 4 -12 1
-19z m1228 2 c-3 -5 -12 -10 -19 -10 -7 0 -19 -11 -26 -25 -7 -14 -18 -25 -23
-25 -6 0 -7 3 -4 7 4 3 -1 16 -10 27 -17 20 -17 20 0 7 15 -12 17 -11 17 4 0
11 5 15 15 12 8 -4 17 -2 20 3 4 6 13 10 21 10 8 0 12 -4 9 -10z m-125 -21 c0
-6 -4 -7 -10 -4 -5 3 -10 11 -10 16 0 6 5 7 10 4 6 -3 10 -11 10 -16z m-8555
-9 c3 -5 1 -10 -4 -10 -6 0 -11 5 -11 10 0 6 2 10 4 10 3 0 8 -4 11 -10z
m3091 -47 c-8 -15 -15 -22 -16 -15 0 17 20 55 27 49 2 -3 -2 -18 -11 -34z
m-3108 18 c8 -4 13 -11 13 -15 -1 -6 7 -6 26 1 7 3 22 -5 35 -17 23 -21 23
-22 4 -36 -11 -8 -35 -14 -53 -14 -26 0 -31 3 -26 17 4 11 3 14 -5 9 -7 -4
-12 -2 -12 3 0 6 5 11 12 11 6 0 8 3 5 6 -10 10 -38 -17 -31 -28 4 -6 -2 -7
-17 -3 -23 7 -23 7 -6 -12 20 -23 22 -33 4 -33 -7 0 -21 12 -31 28 -9 15 -15
19 -12 8 5 -16 2 -17 -20 -12 -21 6 -25 4 -21 -8 4 -9 2 -16 -3 -16 -6 0 -10
4 -10 8 0 4 -11 9 -25 10 -14 1 -25 -3 -25 -8 0 -6 -9 -10 -20 -10 -11 0 -20
-4 -20 -10 0 -5 -6 -10 -14 -10 -7 0 -19 -7 -26 -15 -7 -8 -21 -15 -31 -15
-10 0 -22 -6 -26 -14 -4 -7 -19 -17 -33 -21 -22 -7 -23 -6 -12 8 12 14 10 15
-17 4 -17 -6 -31 -17 -31 -23 0 -14 -95 -64 -122 -64 -10 0 -18 -5 -18 -12 0
-6 -3 -8 -7 -5 -7 8 -143 -63 -143 -75 0 -4 -6 -5 -12 -3 -7 3 -37 -13 -65
-35 -29 -22 -53 -36 -53 -32 0 4 8 14 18 22 47 40 99 77 115 83 11 4 15 12 11
18 -4 8 -3 9 4 5 7 -4 47 10 89 30 43 21 83 38 88 38 6 1 16 7 23 14 8 7 18
10 23 6 5 -3 12 2 15 10 3 9 12 16 19 16 7 0 15 3 17 8 5 12 79 43 89 37 5 -4
9 1 9 9 0 9 9 16 20 16 11 0 28 4 38 9 48 27 152 71 166 71 9 0 16 5 16 10 0
7 6 7 20 0 14 -8 20 -8 20 0 0 6 5 8 10 5 6 -3 10 3 10 14 0 23 7 26 28 12z
m2156 -77 c69 -50 179 -116 279 -167 20 -10 37 -21 37 -24 0 -3 -20 -3 -45 -1
-25 3 -45 2 -45 -3 0 -5 -6 -9 -13 -9 -16 0 -187 97 -207 117 -17 18 -12 16
50 -22 19 -12 64 -33 100 -48 58 -24 62 -25 40 -6 -14 12 -47 32 -74 46 -26
13 -85 49 -129 79 -44 30 -86 54 -94 54 -7 0 -23 -10 -35 -22 -20 -20 -21 -23
-5 -26 9 -2 17 -8 17 -12 0 -13 -166 -90 -193 -90 -12 0 -38 -16 -57 -35 -19
-19 -39 -35 -46 -35 -6 0 -22 -9 -36 -19 -30 -24 -58 -13 -31 11 34 30 187
109 200 103 8 -2 11 0 8 5 -3 6 1 10 10 10 9 0 51 34 93 75 42 41 82 75 88 75
6 0 46 -25 88 -56z m3050 28 c12 -10 80 -56 151 -102 72 -46 155 -99 185 -118
30 -20 49 -37 42 -40 -7 -2 -19 1 -27 8 -8 6 -26 13 -41 15 -14 1 -29 7 -33
12 -3 5 -22 20 -41 33 -19 13 -37 27 -40 30 -8 10 -221 100 -236 100 -8 0 -93
-47 -190 -105 -96 -58 -178 -105 -181 -105 -3 0 -29 -17 -57 -37 -28 -20 -96
-68 -151 -107 -55 -38 -121 -85 -147 -103 -27 -18 -48 -30 -48 -26 0 5 -5 0
-11 -10 -6 -9 -14 -15 -20 -12 -5 4 -16 -1 -24 -9 -9 -8 -37 -32 -63 -53 -26
-21 -49 -40 -52 -43 -3 -3 -38 -27 -77 -54 -40 -27 -97 -72 -128 -100 -30 -29
-55 -49 -55 -46 0 36 237 239 464 398 198 138 739 490 755 492 3 0 14 -8 25
-18z m2016 -17 c0 -8 -4 -15 -10 -15 -5 0 -10 7 -10 15 0 8 5 15 10 15 6 0 10
-7 10 -15z m-700 -10 c0 -2 -10 -9 -22 -15 -22 -11 -22 -10 -4 4 21 17 26 19
26 11z m1247 -1 c-3 -3 -12 -4 -19 -1 -8 3 -5 6 6 6 11 1 17 -2 13 -5z m-5671
-30 c19 -15 32 -29 29 -32 -4 -5 -85 47 -85 54 0 11 25 1 56 -22z m5028 -17
c6 -24 4 -28 -11 -25 -10 2 -17 11 -15 19 2 7 4 22 5 31 2 23 13 10 21 -25z
m-6944 23 c0 -5 -4 -10 -10 -10 -5 0 -10 5 -10 10 0 6 5 10 10 10 6 0 10 -4
10 -10z m0 -30 c0 -5 -2 -10 -4 -10 -3 0 -8 5 -11 10 -3 6 -1 10 4 10 6 0 11
-4 11 -10z m4995 0 c-3 -5 -14 -10 -23 -10 -15 0 -15 2 -2 10 20 13 33 13 25
0z m1880 0 c3 -6 -1 -7 -9 -4 -18 7 -21 14 -7 14 6 0 13 -4 16 -10z m-1192
-85 c3 -36 2 -52 -3 -40 -8 19 -14 113 -6 104 2 -2 6 -31 9 -64z m-5666 49
c-3 -3 -12 -4 -19 -1 -8 3 -5 6 6 6 11 1 17 -2 13 -5z m6824 -37 c-8 -8 -11
-7 -11 4 0 20 13 34 18 19 3 -7 -1 -17 -7 -23z m-7191 -14 c0 -5 -18 -21 -40
-36 -25 -18 -40 -23 -40 -15 1 7 15 23 33 35 35 23 47 27 47 16z m30 -9 c0 -8
-4 -12 -10 -9 -5 3 -10 10 -10 16 0 5 5 9 10 9 6 0 10 -7 10 -16z m5140 -2 c0
-4 -42 -32 -92 -62 -51 -30 -118 -70 -148 -90 -71 -47 -80 -52 -80 -46 0 8 83
63 205 138 125 76 115 70 115 60z m1998 -9 c-2 -10 -11 -19 -21 -21 -16 -3
-17 -1 -7 17 13 25 33 28 28 4z m-3482 -14 c19 -22 19 -22 -3 -10 -24 12 -39
31 -25 31 5 0 17 -10 28 -21z m3524 1 c0 -5 -4 -10 -10 -10 -5 0 -10 5 -10 10
0 6 5 10 10 10 6 0 10 -4 10 -10z m434 -6 c3 -8 2 -12 -4 -9 -6 3 -10 10 -10
16 0 14 7 11 14 -7z m-314 -9 c0 -8 -7 -15 -15 -15 -8 0 -15 7 -15 15 0 8 7
15 15 15 8 0 15 -7 15 -15z m-7420 -15 c0 -5 -10 -10 -22 -10 -19 0 -20 2 -8
10 19 13 30 13 30 0z m328 -14 c3 -12 -1 -17 -10 -14 -7 3 -15 13 -16 22 -3
12 1 17 10 14 7 -3 15 -13 16 -22z m7030 6 c2 -7 -3 -12 -12 -12 -9 0 -16 7
-16 16 0 17 22 14 28 -4z m702 9 c0 -6 -4 -13 -10 -16 -5 -3 -10 1 -10 9 0 9
5 16 10 16 6 0 10 -4 10 -9z m-190 -11 c0 -5 -4 -10 -10 -10 -5 0 -10 5 -10
10 0 6 5 10 10 10 6 0 10 -4 10 -10z m-7425 -10 c3 -5 1 -10 -4 -10 -6 0 -11
5 -11 10 0 6 2 10 4 10 3 0 8 -4 11 -10z m2409 -44 c39 -29 168 -121 286 -205
118 -83 231 -164 251 -179 47 -36 148 -127 129 -116 -27 15 -80 52 -113 79
-18 14 -90 64 -162 110 -71 46 -150 99 -175 117 -25 18 -81 57 -125 86 -44 30
-97 70 -118 88 -36 33 -64 37 -53 8 4 -9 -2 -14 -17 -14 -32 0 -41 -10 -57
-59 -12 -38 -12 -49 3 -89 l16 -46 -33 36 c-37 40 -74 62 -123 73 -18 3 -33
11 -33 15 0 18 89 100 107 100 10 0 24 5 31 12 9 9 17 6 36 -11 l25 -23 15 36
c8 20 20 36 27 36 6 0 44 -24 83 -54z m-2449 24 c3 -5 1 -10 -4 -10 -6 0 -11
5 -11 10 0 6 2 10 4 10 3 0 8 -4 11 -10z m3442 -121 c4 -58 2 -89 -4 -89 -6 0
-10 32 -10 78 0 42 -3 93 -7 112 -5 30 -5 31 4 11 6 -13 13 -64 17 -112z
m-2156 74 c-9 -16 -10 -15 -11 8 0 14 3 29 8 33 12 12 14 -22 3 -41z m-1454 4
c1 -26 0 -28 -7 -12 -11 26 -12 45 -2 45 4 0 8 -15 9 -33z m7713 23 c0 -5 -7
-10 -15 -10 -8 0 -15 5 -15 10 0 6 7 10 15 10 8 0 15 -4 15 -10z m-5840 -65
c0 -3 -18 4 -40 15 -22 11 -40 23 -40 25 0 3 18 -4 40 -15 22 -11 40 -23 40
-25z m5504 30 c3 -8 0 -15 -7 -16 -9 0 -9 -2 1 -6 17 -7 15 -23 -3 -23 -8 0
-15 5 -15 10 0 6 -7 10 -16 10 -9 0 -14 6 -11 13 2 6 10 11 16 10 6 -2 11 2
11 7 0 15 17 12 24 -5z m103 -27 c-3 -7 -5 -2 -5 12 0 14 2 19 5 13 2 -7 2
-19 0 -25z m133 23 c0 -6 -4 -13 -10 -16 -5 -3 -10 1 -10 9 0 9 5 16 10 16 6
0 10 -4 10 -9z m-350 -11 c0 -5 -4 -10 -10 -10 -5 0 -10 5 -10 10 0 6 5 10 10
10 6 0 10 -4 10 -10z m185 0 c3 -5 1 -10 -4 -10 -6 0 -11 5 -11 10 0 6 2 10 4
10 3 0 8 -4 11 -10z m125 -5 c0 -8 -7 -15 -15 -15 -9 0 -12 6 -9 15 4 8 10 15
15 15 5 0 9 -7 9 -15z m-6920 -4 c-8 -4 -43 -14 -77 -21 -35 -7 -63 -17 -63
-23 0 -5 -7 -4 -15 3 -20 17 -77 5 -138 -28 -30 -16 -46 -31 -42 -39 3 -7 8
-20 11 -28 5 -11 2 -13 -10 -9 -9 3 -16 15 -16 25 0 18 -3 18 -39 -5 -39 -25
-91 -43 -91 -33 0 11 150 99 202 119 79 30 325 65 278 39z m1988 -45 c17 -19
17 -19 -16 0 -18 10 -41 28 -50 38 -17 19 -17 19 16 0 18 -10 41 -28 50 -38z
m4112 44 c133 -13 205 -34 263 -78 28 -20 71 -49 96 -64 l46 -28 -155 0 c-85
0 -207 3 -270 8 l-115 7 180 5 180 5 0 35 c0 31 -5 37 -38 54 -42 20 -65 24
-212 33 -62 4 -105 11 -113 20 -17 16 2 17 138 3z m-7264 -12 c4 -6 -1 -17
-11 -24 -23 -17 -29 -12 -20 15 7 23 20 27 31 9z m8026 -10 c-7 -7 -12 -8 -12
-2 0 14 12 26 19 19 2 -3 -1 -11 -7 -17z m-32 -18 c0 -5 -7 -10 -16 -10 -8 0
-12 5 -9 10 3 6 10 10 16 10 5 0 9 -4 9 -10z m620 6 c0 -3 -4 -8 -10 -11 -5
-3 -10 -1 -10 4 0 6 5 11 10 11 6 0 10 -2 10 -4z m-2785 -16 c-7 -11 -87 -54
-133 -71 -49 -18 -2 19 64 51 64 31 79 36 69 20z m450 0 c-3 -5 -16 -15 -28
-21 -19 -9 -19 -8 3 10 28 23 34 26 25 11z m1609 -11 c-6 -11 -24 -2 -24 11 0
5 7 7 15 4 8 -4 12 -10 9 -15z m56 1 c-11 -21 -40 -28 -40 -10 0 6 7 10 15 10
8 0 15 5 15 10 0 6 5 10 10 10 7 0 7 -6 0 -20z m-4720 -36 c0 -2 -9 0 -20 6
-11 6 -20 13 -20 16 0 2 9 0 20 -6 11 -6 20 -13 20 -16z m3100 -14 c-8 -5 -19
-10 -25 -10 -5 0 -3 5 5 10 8 5 20 10 25 10 6 0 3 -5 -5 -10z m-6817 -29 c-9
-11 -20 -18 -25 -15 -14 9 -9 22 10 27 31 8 32 7 15 -12z m1827 -8 c-8 -1
-100 -9 -203 -18 -212 -17 -313 -19 -321 -7 -3 5 88 12 202 16 114 4 232 11
262 15 30 4 60 5 65 2 6 -3 3 -7 -5 -8z m5753 0 c-13 -2 -33 -2 -45 0 -13 2
-3 4 22 4 25 0 35 -2 23 -4z m1172 -63 c-3 -5 -11 -10 -16 -10 -6 0 -7 5 -4
10 3 6 11 10 16 10 6 0 7 -4 4 -10z m-754 -30 c6 0 7 -4 4 -10 -12 -19 -25
-10 -24 18 1 16 3 20 6 10 2 -10 9 -18 14 -18z m-2012 6 c-2 -2 -20 -11 -39
-20 l-35 -17 24 21 c13 11 30 20 39 20 8 0 13 -2 11 -4z m-6144 -26 c3 -5 1
-10 -4 -10 -6 0 -11 5 -11 10 0 6 2 10 4 10 3 0 8 -4 11 -10z m2460 -31 c5 -5
-23 -9 -72 -9 -85 0 -113 5 -113 22 0 13 170 1 185 -13z m-2520 1 c-3 -5 -12
-10 -18 -10 -7 0 -6 4 3 10 19 12 23 12 15 0z m7405 1 c0 -5 -10 -11 -22 -15
-36 -9 -138 -7 -138 3 0 13 13 16 91 18 38 1 69 -1 69 -6z m1500 -1 c0 -5 -4
-10 -10 -10 -5 0 -10 5 -10 10 0 6 5 10 10 10 6 0 10 -4 10 -10z m-200 -50 c0
-5 -4 -10 -10 -10 -5 0 -10 5 -10 10 0 6 5 10 10 10 6 0 10 -4 10 -10z m-6084
-62 l29 -32 -32 25 c-18 13 -32 27 -32 32 -1 12 4 8 35 -25z m2819 2 c-3 -5
-12 -10 -18 -10 -7 0 -6 4 3 10 19 12 23 12 15 0z m481 -5 c-11 -8 -27 -15
-35 -15 -11 0 -10 4 5 15 10 8 26 14 34 14 11 0 10 -3 -4 -14z m-5346 -30 c0
-8 -4 -15 -10 -15 -5 0 -10 7 -10 15 0 8 5 15 10 15 6 0 10 -7 10 -15z m8060
-29 c0 -3 -4 -8 -10 -11 -5 -3 -10 -1 -10 4 0 6 5 11 10 11 6 0 10 -2 10 -4z
m-4080 -36 c0 -5 -7 -7 -15 -4 -8 4 -15 8 -15 10 0 2 7 4 15 4 8 0 15 -4 15
-10z m3875 0 c3 -5 -1 -10 -9 -10 -9 0 -16 5 -16 10 0 6 4 10 9 10 6 0 13 -4
16 -10z m95 0 c0 -5 -5 -10 -11 -10 -5 0 -7 5 -4 10 3 6 8 10 11 10 2 0 4 -4
4 -10z m-160 -4 c0 -3 -4 -8 -10 -11 -5 -3 -10 -1 -10 4 0 6 5 11 10 11 6 0
10 -2 10 -4z m-6783 -38 c-3 -7 -5 -2 -5 12 0 14 2 19 5 13 2 -7 2 -19 0 -25z
m2107 11 c20 -12 36 -23 36 -25 0 -10 -19 -2 -50 21 -41 30 -34 33 14 4z
m-2064 7 c0 -3 -4 -8 -10 -11 -5 -3 -10 -1 -10 4 0 6 5 11 10 11 6 0 10 -2 10
-4z m-190 -41 c7 -9 8 -15 2 -15 -5 0 -12 7 -16 15 -3 8 -4 15 -2 15 2 0 9 -7
16 -15z m125 -5 c3 -5 2 -10 -4 -10 -5 0 -13 5 -16 10 -3 6 -2 10 4 10 5 0 13
-4 16 -10z m6648 4 c9 -10 -4 -34 -19 -34 -8 0 -14 6 -14 13 0 22 19 35 33 21z
m-105 -43 c3 -8 -1 -12 -9 -9 -7 2 -15 10 -17 17 -3 8 1 12 9 9 7 -2 15 -10
17 -17z m57 -1 c10 -11 15 -20 11 -20 -4 0 -16 9 -28 20 -12 11 -17 20 -11 20
5 0 18 -9 28 -20z m405 10 c0 -5 -2 -10 -4 -10 -3 0 -8 5 -11 10 -3 6 -1 10 4
10 6 0 11 -4 11 -10z m-7092 -25 c1 -14 -3 -25 -8 -25 -6 0 -10 11 -10 25 0
14 4 25 8 25 4 0 9 -11 10 -25z m-318 -6 c0 -6 -4 -7 -10 -4 -5 3 -10 11 -10
16 0 6 5 7 10 4 6 -3 10 -11 10 -16z m445 11 c3 -5 1 -10 -4 -10 -6 0 -11 5
-11 10 0 6 2 10 4 10 3 0 8 -4 11 -10z m6855 -5 c0 -8 -4 -15 -9 -15 -13 0
-22 16 -14 24 11 11 23 6 23 -9z m-422 -18 c2 -10 -3 -17 -12 -17 -10 0 -16 9
-16 21 0 24 23 21 28 -4z m122 -11 c0 -3 -4 -8 -10 -11 -5 -3 -10 -1 -10 4 0
6 5 11 10 11 6 0 10 -2 10 -4z m-10 -41 c0 -8 -7 -15 -15 -15 -16 0 -20 12 -8
23 11 12 23 8 23 -8z m-3500 -27 c0 -6 -17 -34 -38 -62 -75 -102 -200 -321
-255 -448 -18 -40 -58 -118 -89 -173 l-56 -100 -7 -155 c-3 -85 -10 -196 -16
-247 -9 -90 -8 -92 22 -158 17 -36 29 -68 27 -70 -2 -3 -22 4 -44 16 -35 18
-53 20 -184 16 -111 -3 -153 -8 -177 -21 -45 -23 -44 -2 2 58 19 25 37 56 40
68 10 38 43 489 38 509 -3 11 -10 19 -15 19 -5 0 -7 4 -4 9 3 5 0 11 -8 14 -8
3 -17 24 -21 47 -4 22 -13 47 -20 54 -8 7 -17 27 -21 42 -15 65 -107 321 -145
402 -22 48 -58 108 -80 134 l-40 48 210 0 c116 0 211 -4 211 -8 0 -5 -11 -19
-25 -32 -14 -13 -25 -31 -25 -39 0 -9 32 -110 71 -226 39 -115 73 -216 75
-224 3 -8 45 72 94 178 48 105 98 207 109 227 28 46 27 55 -10 90 l-30 29 178
5 c98 3 190 7 206 8 15 1 27 -3 27 -10z m1691 -93 c3 -55 11 -126 18 -158 7
-32 10 -61 7 -64 -3 -3 -28 15 -55 40 l-50 47 -102 0 c-92 0 -101 -2 -94 -17
3 -10 15 -83 26 -163 10 -80 26 -192 34 -250 8 -58 26 -220 40 -360 l26 -255
40 -77 c21 -42 39 -79 39 -82 0 -3 -17 5 -37 17 -34 20 -54 22 -204 25 -164 4
-167 3 -183 -19 -8 -13 -18 -20 -21 -17 -8 8 13 59 41 95 l25 32 -16 158 c-24
246 -66 800 -65 876 l0 39 -102 -7 c-101 -7 -104 -8 -140 -43 -21 -20 -39 -34
-39 -32 -1 3 -3 57 -4 120 -1 85 -6 125 -18 150 -9 18 -17 35 -17 36 0 3 721
11 825 9 18 0 21 -9 26 -100z m1679 89 c0 -8 -4 -12 -10 -9 -5 3 -10 10 -10
16 0 5 5 9 10 9 6 0 10 -7 10 -16z m355 -6 c11 -33 11 -38 0 -38 -5 -1 -13 13
-16 30 -7 35 5 41 16 8z m-5896 -19 c21 -28 127 -112 153 -122 10 -3 9 -11 -4
-33 -22 -40 -47 -139 -56 -226 -6 -65 -10 -73 -27 -71 -91 11 -207 13 -245 5
-24 -6 -45 -10 -46 -9 -1 1 11 52 27 112 16 61 29 116 29 123 0 10 -32 12
-142 10 -139 -3 -143 -4 -140 -24 3 -23 -66 -291 -165 -639 -36 -126 -68 -243
-71 -259 l-5 -29 144 7 c79 4 148 11 152 16 5 4 18 57 29 116 l21 109 169 0
c108 0 167 -4 164 -10 -37 -81 -58 -148 -71 -226 -10 -59 -22 -98 -31 -104
-34 -22 -181 -139 -211 -167 l-32 -31 -168 2 c-184 2 -314 -11 -349 -34 -22
-14 -24 -13 -50 30 -14 25 -47 64 -74 88 l-47 42 43 135 c43 138 149 484 210
690 30 100 70 250 88 330 4 20 28 36 111 79 59 30 115 66 127 80 20 26 20 26
216 31 109 3 204 7 213 8 8 1 25 -12 38 -29z m947 0 c16 -17 53 -46 82 -65 29
-19 55 -40 58 -48 3 -7 -4 -59 -15 -114 -11 -55 -28 -168 -38 -251 -14 -125
-20 -151 -33 -151 -9 0 -25 -7 -36 -16 -18 -15 -18 -15 5 -8 35 9 18 -12 -28
-35 -20 -11 -43 -27 -50 -35 -7 -9 -17 -13 -22 -10 -47 28 86 -428 165 -570
l34 -61 -179 -1 c-118 -1 -189 -6 -209 -14 -37 -15 -49 -7 -27 18 26 28 21 83
-23 247 -72 271 -85 310 -106 308 -11 -1 -38 -3 -62 -4 -24 -2 -45 -6 -48 -10
-8 -13 -74 -443 -74 -482 0 -42 22 -101 48 -131 16 -18 16 -19 -1 -13 -10 4
-35 7 -55 8 -20 0 -31 3 -24 6 6 2 12 11 12 19 0 11 -18 14 -83 14 -99 0 -248
-17 -261 -31 -12 -11 -53 -12 -59 -1 -3 4 24 42 59 86 41 51 66 91 70 115 34
187 184 925 216 1058 l22 92 -32 45 c-18 24 -32 47 -32 50 0 3 152 7 338 9
185 1 342 3 348 5 5 1 23 -12 40 -29z m1884 -15 c32 -25 76 -52 97 -59 45 -15
48 -27 56 -183 5 -102 5 -103 -16 -96 -41 14 -219 5 -245 -12 -13 -9 -26 -13
-29 -11 -2 3 -1 43 4 90 l9 84 -140 7 c-76 3 -140 5 -142 4 -1 -2 0 -52 4
-111 l7 -108 70 -30 c39 -17 115 -48 170 -70 107 -43 296 -141 313 -162 5 -6
12 -126 16 -265 4 -139 9 -259 12 -267 3 -8 -14 -26 -43 -46 -61 -41 -103 -79
-103 -94 0 -9 -66 -12 -245 -13 -260 0 -302 -4 -307 -29 -2 -10 -15 3 -36 35
-36 56 -82 99 -126 117 l-30 13 3 168 c1 93 3 169 4 170 1 0 73 -2 161 -4
l158 -4 -7 -94 -7 -94 136 0 136 0 0 48 c0 26 -3 104 -7 175 l-6 127 -41 11
c-62 15 -225 69 -281 92 -71 29 -206 109 -213 127 -4 8 -6 103 -4 210 l3 195
49 23 c26 12 68 40 92 62 l43 39 213 1 214 0 58 -46z m1700 33 c0 -25 56 -79
120 -116 l65 -37 7 -80 c10 -120 45 -306 77 -414 16 -52 44 -160 61 -240 39
-177 130 -459 165 -511 14 -21 25 -43 25 -48 0 -21 -21 -21 -47 -1 -23 16 -54
22 -162 31 -127 11 -134 10 -153 -8 -19 -19 -19 -20 22 -21 23 -1 49 -6 58
-11 12 -7 -13 -10 -76 -10 l-94 0 21 32 c45 71 46 73 28 145 -10 37 -24 112
-32 168 -8 55 -24 130 -35 166 -16 54 -24 66 -40 65 -11 -1 -22 -7 -24 -14 -6
-13 -59 -8 -64 8 -2 5 -10 9 -18 9 -7 0 -11 -6 -8 -14 5 -13 -22 -29 -51 -31
-16 0 -18 -35 -2 -35 8 0 20 -7 27 -15 10 -12 8 -17 -14 -26 -25 -12 -25 -12
-20 -108 10 -203 12 -213 50 -260 19 -24 32 -46 30 -48 -2 -3 -28 3 -57 11
-36 11 -93 16 -178 16 -109 0 -130 -3 -156 -20 -16 -11 -33 -20 -37 -20 -4 0
9 33 28 73 l34 73 -15 179 c-8 99 -21 215 -30 258 -8 43 -15 121 -15 172 0 85
-23 272 -50 414 -18 93 -14 111 35 170 24 30 45 64 47 75 3 20 9 21 215 21
116 0 215 4 219 8 12 12 44 8 44 -6z m620 5 c0 -1 -11 -20 -25 -41 -31 -46
-30 -56 25 -281 21 -85 43 -182 50 -215 6 -33 29 -134 51 -225 22 -91 52 -219
68 -285 l27 -120 50 -7 c77 -10 245 -9 286 2 37 11 90 53 100 80 9 27 17 6 43
-120 15 -69 40 -165 56 -213 16 -49 29 -92 29 -97 0 -12 -50 7 -72 27 -18 17
-82 22 -491 42 -179 9 -213 9 -244 -4 -20 -8 -38 -13 -41 -10 -3 3 3 20 13 39
18 33 18 36 -3 123 -13 48 -33 149 -47 223 -13 74 -48 259 -78 410 -30 151
-67 340 -81 420 l-27 145 -54 55 -54 55 209 0 c116 0 210 -1 210 -3z m1440 -2
c0 -5 -4 -10 -10 -10 -5 0 -10 5 -10 10 0 6 5 10 10 10 6 0 10 -4 10 -10z
m290 0 c0 -5 -4 -10 -10 -10 -5 0 -10 5 -10 10 0 6 5 10 10 10 6 0 10 -4 10
-10z m-7779 -23 c-10 -9 -11 -8 -5 6 3 10 9 15 12 12 3 -3 0 -11 -7 -18z
m6559 15 c0 -13 -12 -22 -22 -16 -10 6 -1 24 13 24 5 0 9 -4 9 -8z m43 -27
c-7 -21 -13 -19 -13 6 0 11 4 18 10 14 5 -3 7 -12 3 -20z m-56 -47 c2 -18 0
-20 -7 -8 -12 18 -13 30 -2 30 4 0 9 -10 9 -22z m-252 2 c3 -5 -1 -10 -9 -10
-9 0 -16 5 -16 10 0 6 4 10 9 10 6 0 13 -4 16 -10z m432 -10 c1 -11 -2 -20 -8
-20 -5 0 -9 9 -9 20 0 11 4 20 8 20 4 0 8 -9 9 -20z m-6800 -27 c-3 -10 -5 -4
-5 12 0 17 2 24 5 18 2 -7 2 -21 0 -30z m7783 -4 c0 -5 -4 -9 -10 -9 -5 0 -10
7 -10 16 0 8 5 12 10 9 6 -3 10 -10 10 -16z m-935 -9 c3 -5 2 -10 -4 -10 -5 0
-13 5 -16 10 -3 6 -2 10 4 10 5 0 13 -4 16 -10z m-373 -18 c-7 -2 -10 -8 -6
-13 3 -5 0 -9 -5 -9 -13 0 -13 3 -5 24 3 9 11 13 17 9 8 -5 7 -8 -1 -11z m-49
-9 c-7 -2 -19 -2 -25 0 -7 3 -2 5 12 5 14 0 19 -2 13 -5z m-6573 -63 c0 -5 -5
-10 -11 -10 -5 0 -7 5 -4 10 3 6 8 10 11 10 2 0 4 -4 4 -10z m6727 -12 c-3 -8
-6 -5 -6 6 -1 11 2 17 5 13 3 -3 4 -12 1 -19z m-7864 -9 c-6 -6 -9 -17 -6 -24
3 -10 -2 -12 -16 -8 -20 5 -20 5 2 24 24 20 38 26 20 8z m932 -8 c3 -5 1 -12
-5 -16 -5 -3 -10 1 -10 9 0 18 6 21 15 7z m-1033 -13 c-9 -9 -15 -9 -24 0 -9
9 -7 12 12 12 19 0 21 -3 12 -12z m1188 -12 c0 -2 -7 -7 -16 -10 -8 -3 -12 -2
-9 4 6 10 25 14 25 6z m-930 -26 c0 -5 -5 -10 -11 -10 -5 0 -7 5 -4 10 3 6 8
10 11 10 2 0 4 -4 4 -10z m1100 6 c0 -3 -4 -8 -10 -11 -5 -3 -10 -1 -10 4 0 6
5 11 10 11 6 0 10 -2 10 -4z m-760 -21 c8 -1 20 1 25 5 6 4 24 -1 40 -12 27
-18 28 -19 5 -12 -14 3 -28 11 -31 16 -4 6 -8 5 -11 -2 -3 -10 -25 -11 -92 -5
-59 5 -84 10 -75 16 12 8 67 5 139 -6z m154 6 c5 -1 6 -4 2 -8 -9 -10 -56 -11
-56 -3 0 12 11 18 28 15 9 -2 21 -4 26 -4z m184 3 c12 -4 22 -11 22 -16 0 -5
-4 -6 -10 -3 -5 3 -18 1 -29 -5 -21 -11 -37 2 -26 20 7 12 12 12 43 4z m157
-4 c3 -5 1 -10 -4 -10 -6 0 -11 5 -11 10 0 6 2 10 4 10 3 0 8 -4 11 -10z m50
0 c-3 -5 -13 -10 -21 -10 -8 0 -12 5 -9 10 3 6 13 10 21 10 8 0 12 -4 9 -10z
m7845 6 c0 -2 3 -11 6 -20 7 -18 -12 -21 -35 -7 -16 10 -6 31 15 31 8 0 14 -2
14 -4z m-8180 -16 c-20 -13 -40 -13 -40 0 0 6 12 10 28 10 21 0 24 -2 12 -10z
m67 4 c-3 -3 -12 -4 -19 -1 -8 3 -5 6 6 6 11 1 17 -2 13 -5z m141 -24 c8 0 13
-2 10 -5 -3 -4 -18 -3 -33 1 -20 5 -23 9 -13 15 7 5 14 4 16 -1 2 -6 11 -10
20 -10z m257 -10 c19 -8 19 -9 -2 -9 -12 -1 -25 4 -28 9 -7 12 2 12 30 0z
m-97 -26 c-10 -10 -24 -13 -42 -8 -20 5 -25 9 -16 18 8 8 13 7 20 -3 7 -12 11
-11 25 3 10 9 20 14 23 11 3 -3 -1 -12 -10 -21z m52 17 c0 -6 -4 -13 -10 -16
-5 -3 -10 1 -10 9 0 9 5 16 10 16 6 0 10 -4 10 -9z m-320 -31 c0 -5 -5 -10
-11 -10 -5 0 -7 5 -4 10 3 6 8 10 11 10 2 0 4 -4 4 -10z m185 -9 c-3 -6 -11
-11 -17 -11 -6 0 -6 6 2 15 14 17 26 13 15 -4z m279 3 c9 -24 7 -27 -9 -10
-17 17 -19 26 -6 26 5 0 12 -7 15 -16z m-354 -4 c0 -5 -11 -10 -25 -10 -14 0
-25 5 -25 10 0 6 11 10 25 10 14 0 25 -4 25 -10z m277 -15 c-4 -8 -11 -15 -17
-15 -6 0 -6 7 2 20 14 22 24 19 15 -5z m39 -1 c-3 -8 -2 -14 3 -14 5 0 11 -10
13 -23 3 -15 0 -24 -9 -24 -7 0 -13 6 -13 12 0 7 -3 27 -7 45 -4 25 -3 31 6
26 7 -5 10 -14 7 -22z m-176 -24 c0 -5 -4 -10 -10 -10 -5 0 -10 5 -10 10 0 6
5 10 10 10 6 0 10 -4 10 -10z m58 -48 c-2 -11 5 -17 20 -18 12 -1 27 -2 32 -3
6 0 10 -13 10 -28 l-1 -28 -14 25 c-10 18 -14 20 -15 8 0 -22 -40 -12 -41 11
-1 14 -2 13 -6 -1 -5 -19 -33 -25 -33 -7 0 5 -4 7 -10 4 -5 -3 -15 3 -21 13
-7 12 -20 18 -33 16 -13 -3 -15 -2 -6 2 8 4 18 12 22 18 5 8 8 7 8 -1 0 -7 7
-13 15 -13 8 0 15 -4 15 -10 0 -5 7 -10 15 -10 16 0 21 15 8 23 -5 2 -2 2 5 1
6 -2 12 4 12 12 0 8 5 12 10 9 6 -4 9 -14 8 -23z m-168 -22 c0 -5 -2 -10 -4
-10 -3 0 -8 5 -11 10 -3 6 -1 10 4 10 6 0 11 -4 11 -10z m71 -49 c-7 -5 -17
-15 -22 -22 -6 -10 -9 -8 -9 9 0 16 6 22 23 22 16 0 18 -3 8 -9z m-71 -21 c-6
-4 -30 -7 -53 -8 l-42 -1 35 13 c36 12 82 10 60 -4z m116 5 c-21 -16 -32 -13
-21 4 3 6 14 11 23 11 15 -1 15 -2 -2 -15z m3554 -97 c30 -16 44 -25 30 -22
-49 13 -127 54 -166 89 l-39 36 60 -38 c33 -20 85 -50 115 -65z m-3820 18 c0
-3 -4 -8 -10 -11 -5 -3 -10 -1 -10 4 0 6 5 11 10 11 6 0 10 -2 10 -4z m-155
-26 c3 -5 1 -10 -4 -10 -6 0 -11 5 -11 10 0 6 2 10 4 10 3 0 8 -4 11 -10z
m-525 -45 c0 -8 -4 -15 -9 -15 -13 0 -22 16 -14 24 11 11 23 6 23 -9z m8466
-24 c-11 -18 -36 -13 -36 7 0 10 3 22 7 26 10 10 37 -20 29 -33z m-852 -33 c6
-28 2 -48 -8 -37 -10 11 -17 69 -8 69 5 0 12 -14 16 -32z m-7699 2 c3 -5 1
-10 -4 -10 -6 0 -11 5 -11 10 0 6 2 10 4 10 3 0 8 -4 11 -10z m8735 -76 c0 -8
-4 -12 -10 -9 -5 3 -10 10 -10 16 0 5 5 9 10 9 6 0 10 -7 10 -16z m-8700 -4
c0 -5 -5 -10 -11 -10 -5 0 -7 5 -4 10 3 6 8 10 11 10 2 0 4 -4 4 -10z m980 6
c0 -11 -19 -15 -25 -6 -3 5 1 10 9 10 9 0 16 -2 16 -4z m-380 -30 c0 -3 -4 -8
-10 -11 -5 -3 -10 -1 -10 4 0 6 5 11 10 11 6 0 10 -2 10 -4z m340 -46 c0 -5
-2 -10 -4 -10 -3 0 -8 5 -11 10 -3 6 -1 10 4 10 6 0 11 -4 11 -10z m6800 -64
c0 -2 -7 -6 -15 -10 -8 -3 -15 -1 -15 4 0 6 7 10 15 10 8 0 15 -2 15 -4z
m-7202 -78 c-6 -18 -28 -21 -28 -4 0 9 7 16 16 16 9 0 14 -5 12 -12z m8672
-149 c0 -6 -4 -7 -10 -4 -5 3 -10 11 -10 16 0 6 5 7 10 4 6 -3 10 -11 10 -16z
m-656 -88 c3 -5 -1 -14 -8 -20 -16 -13 -32 2 -21 19 8 12 22 13 29 1z m-2671
-118 c-13 -2 -33 -2 -45 0 -13 2 -3 4 22 4 25 0 35 -2 23 -4z m3053 -34 c9
-15 -11 -33 -30 -26 -9 4 -13 13 -10 22 7 17 30 20 40 4z m-3472 -69 l72 0 -4
-58 c-2 -33 3 -106 12 -163 9 -57 21 -169 26 -248 6 -79 19 -193 30 -254 11
-61 18 -112 16 -114 -1 -2 -44 -5 -95 -7 l-91 -3 0 67 c0 89 -15 281 -41 520
-16 142 -27 204 -40 228 -25 44 -24 46 12 38 17 -3 64 -6 103 -6z m247 0 c44
0 50 -3 64 -30 8 -16 52 -79 98 -139 45 -61 111 -162 145 -226 35 -64 65 -115
67 -113 2 2 -10 65 -26 142 -16 76 -34 179 -39 229 -6 51 -18 102 -26 115 -9
13 -14 25 -12 26 2 2 49 1 104 -2 l101 -4 -4 -42 c-3 -22 9 -120 26 -216 17
-96 40 -236 52 -310 18 -118 31 -180 54 -255 6 -19 1 -20 -92 -20 l-99 0 -15
30 c-9 17 -66 111 -128 210 -62 99 -122 194 -132 210 l-19 30 0 -39 c0 -52 47
-330 65 -385 8 -25 13 -46 10 -49 -2 -3 -45 -6 -94 -7 l-89 -2 -5 76 c-3 42
-12 123 -21 181 -8 58 -25 195 -36 305 -15 136 -28 214 -41 244 -24 56 -25 55
12 47 17 -3 53 -6 80 -6z m-2161 -33 c8 -12 29 -36 46 -53 31 -30 32 -33 23
-80 -5 -27 -14 -101 -19 -164 -9 -94 -14 -118 -32 -137 -42 -45 -96 -62 -219
-69 -125 -7 -155 2 -99 31 62 32 23 88 -64 91 -29 1 -63 7 -74 13 -19 10 -22
7 -36 -37 -8 -26 -17 -67 -21 -92 -3 -25 -12 -79 -20 -120 -7 -41 -16 -94 -19
-118 l-6 -43 56 3 56 3 3 45 c6 81 38 230 50 230 8 0 9 -17 4 -57 -21 -156
-22 -208 -6 -238 l15 -30 -114 1 c-63 1 -117 4 -120 6 -3 3 4 23 15 44 12 24
26 86 36 159 19 146 26 186 71 392 l36 163 -31 37 c-17 21 -31 40 -31 44 0 3
109 4 243 2 234 -5 242 -6 257 -26z m314 21 c30 -122 60 -254 76 -338 23 -114
56 -226 71 -235 5 -4 9 11 9 32 0 40 41 208 86 353 16 50 27 109 27 143 l0 57
114 0 c62 0 113 -3 113 -6 0 -3 -16 -38 -35 -78 -24 -49 -56 -158 -105 -352
-38 -154 -77 -300 -85 -324 -8 -23 -15 -52 -15 -64 0 -20 -4 -21 -115 -21
-108 0 -116 1 -120 20 -2 11 -9 47 -16 80 -6 33 -24 101 -39 150 -16 50 -38
128 -49 175 -44 187 -91 336 -121 378 l-30 42 116 0 c83 0 115 -3 118 -12z
m1017 -11 c5 -8 32 -32 59 -52 l50 -37 0 -158 0 -159 -33 -34 c-41 -44 -84
-56 -221 -64 -81 -5 -107 -3 -102 5 4 7 13 12 20 12 20 0 33 20 41 61 l7 37
-53 3 c-35 3 -57 0 -66 -10 -10 -10 -28 -12 -64 -8 l-49 6 -2 -47 c-3 -102 4
-337 11 -345 8 -8 69 10 86 25 6 5 8 65 6 148 -2 95 1 140 8 140 14 0 19 -26
26 -150 3 -58 8 -125 11 -150 l6 -45 -102 0 -102 0 7 40 c4 22 6 195 5 384
l-1 345 -25 29 c-13 15 -24 32 -24 35 0 4 111 7 246 6 211 -1 248 -4 255 -17z
m4899 -205 c0 -10 -12 -25 -26 -33 -55 -29 -154 -145 -154 -180 0 -21 -76 -83
-90 -74 -16 10 -12 52 9 93 10 20 24 60 31 89 l12 52 86 27 c48 14 94 30 102
34 23 13 30 12 30 -8z m-6961 -64 l46 -3 -39 -18 c-38 -17 -39 -18 -33 -63 l5
-46 -27 26 c-32 31 -38 32 -64 9 -19 -18 -20 -17 -13 10 3 15 2 36 -4 48 -10
17 -7 21 18 30 23 8 32 19 38 47 l8 37 9 -37 c10 -35 13 -37 56 -40z m3725 19
c3 -9 19 -20 36 -24 28 -5 29 -7 15 -23 -8 -9 -15 -24 -15 -33 0 -22 -17 -30
-57 -29 -18 1 -33 -3 -33 -8 0 -6 -4 -10 -10 -10 -5 0 -7 7 -4 15 10 26 -5 61
-32 76 l-27 14 43 5 c40 5 45 8 54 39 10 35 12 34 30 -22z m-6220 -296 c21
-19 49 -69 44 -81 -4 -11 -108 87 -108 101 0 14 40 1 64 -20z m9189 -67 c10
-10 -21 -62 -46 -75 -52 -28 -179 -133 -187 -155 -5 -13 -15 -24 -22 -24 -17
1 -57 64 -60 97 -3 28 -7 26 112 58 102 27 119 36 147 71 24 33 42 41 56 28z
m-4259 -95 c12 -117 17 -109 -69 -109 l-75 0 0 85 0 85 69 0 68 0 7 -61z
m-4600 19 c21 -29 20 -67 -1 -75 -9 -4 -19 -1 -21 5 -9 29 -42 56 -68 58 -16
1 -31 3 -33 3 -3 1 4 8 15 16 30 23 90 19 108 -7z m7049 -13 c-7 -21 -13 -19
-13 6 0 11 4 18 10 14 5 -3 7 -12 3 -20z m-1013 -65 c0 -5 -4 -10 -9 -10 -6 0
-13 5 -16 10 -3 6 1 10 9 10 9 0 16 -4 16 -10z m-4230 -39 c0 -6 -4 -13 -10
-16 -5 -3 -10 1 -10 9 0 9 5 16 10 16 6 0 10 -4 10 -9z m-755 -130 c3 -5 1
-12 -5 -16 -5 -3 -10 1 -10 9 0 18 6 21 15 7z m6699 -17 c28 -11 17 -30 -34
-58 -38 -21 -56 -39 -74 -75 -14 -26 -32 -53 -40 -60 -14 -12 -16 -6 -16 54 0
72 18 116 54 134 24 11 86 14 110 5z m-1354 -54 c0 -12 14 -29 35 -42 39 -25
44 -38 17 -38 -12 0 -23 -13 -32 -35 -16 -41 -30 -46 -30 -10 0 19 -6 25 -22
26 l-23 2 23 4 c31 6 27 22 -8 30 -36 7 -37 10 -5 35 14 11 25 26 25 34 0 8 5
14 10 14 6 0 10 -9 10 -20z m-90 -24 c0 -3 -4 -8 -10 -11 -5 -3 -10 -1 -10 4
0 6 5 11 10 11 6 0 10 -2 10 -4z m-3163 -162 c-3 -3 -12 -4 -19 -1 -8 3 -5 6
6 6 11 1 17 -2 13 -5z m2673 -14 c0 -5 -5 -10 -11 -10 -5 0 -7 5 -4 10 3 6 8
10 11 10 2 0 4 -4 4 -10z m-3110 -20 c0 -5 -2 -10 -4 -10 -3 0 -8 5 -11 10 -3
6 -1 10 4 10 6 0 11 -4 11 -10z m650 -11 c0 -5 -4 -9 -10 -9 -5 0 -10 7 -10
16 0 8 5 12 10 9 6 -3 10 -10 10 -16z m-190 -9 c0 -5 -4 -10 -10 -10 -5 0 -10
5 -10 10 0 6 5 10 10 10 6 0 10 -4 10 -10z m260 -4 c0 -3 -4 -8 -10 -11 -5 -3
-10 -1 -10 4 0 6 5 11 10 11 6 0 10 -2 10 -4z m-140 -21 c0 -8 -4 -15 -10 -15
-5 0 -10 7 -10 15 0 8 5 15 10 15 6 0 10 -7 10 -15z m2065 -75 c3 -5 1 -10 -4
-10 -6 0 -11 5 -11 10 0 6 2 10 4 10 3 0 8 -4 11 -10z m-2185 -4 c0 -11 -19
-15 -25 -6 -3 5 1 10 9 10 9 0 16 -2 16 -4z m1235 -106 c3 -5 1 -10 -4 -10 -6
0 -11 5 -11 10 0 6 2 10 4 10 3 0 8 -4 11 -10z m-275 -100 c0 -5 -4 -10 -10
-10 -5 0 -10 5 -10 10 0 6 5 10 10 10 6 0 10 -4 10 -10z m1715 0 c3 -5 1 -10
-4 -10 -6 0 -11 5 -11 10 0 6 2 10 4 10 3 0 8 -4 11 -10z m-2465 -20 c0 -5 -4
-10 -10 -10 -5 0 -10 5 -10 10 0 6 5 10 10 10 6 0 10 -4 10 -10z m5181 -71
c24 -24 25 -24 -58 -83 -28 -20 -54 -33 -57 -28 -6 10 30 91 51 114 21 24 38
23 64 -3z m-5256 -69 c3 -5 1 -10 -4 -10 -6 0 -11 5 -11 10 0 6 2 10 4 10 3 0
8 -4 11 -10z m4446 -231 c132 -75 133 -76 107 -83 -13 -3 -38 -6 -57 -6 -31 0
-69 -9 -126 -30 -11 -4 -59 -20 -107 -35 -47 -15 -106 -40 -130 -56 -23 -16
-51 -29 -62 -29 -16 0 -18 7 -15 80 2 43 9 84 15 90 7 7 48 17 93 22 57 7 99
20 143 43 35 18 68 33 74 34 6 1 35 -13 65 -30z m-2541 -8 c0 -6 -4 -13 -10
-16 -5 -3 -10 1 -10 9 0 9 5 16 10 16 6 0 10 -4 10 -9z"/>
<path d="M3410 8580 c0 -5 5 -10 11 -10 5 0 7 5 4 10 -3 6 -8 10 -11 10 -2 0
-4 -4 -4 -10z"/>
<path d="M5590 8230 c0 -5 5 -10 11 -10 5 0 7 5 4 10 -3 6 -8 10 -11 10 -2 0
-4 -4 -4 -10z"/>
<path d="M6145 7860 c3 -5 8 -10 11 -10 2 0 4 5 4 10 0 6 -5 10 -11 10 -5 0
-7 -4 -4 -10z"/>
<path d="M6842 7432 c-10 -3 -8 -8 5 -18 25 -18 33 -17 33 4 0 18 -12 23 -38
14z"/>
<path d="M9020 5136 c0 -2 7 -7 16 -10 8 -3 12 -2 9 4 -6 10 -25 14 -25 6z"/>
<path d="M8990 5120 c-9 -6 -10 -10 -3 -10 6 0 15 5 18 10 8 12 4 12 -15 0z"/>
<path d="M8765 5010 c3 -5 8 -10 11 -10 2 0 4 5 4 10 0 6 -5 10 -11 10 -5 0
-7 -4 -4 -10z"/>
<path d="M1750 4280 c0 -5 5 -10 10 -10 6 0 10 5 10 10 0 6 -4 10 -10 10 -5 0
-10 -4 -10 -10z"/>
<path d="M1793 4234 c9 -3 17 -9 17 -13 0 -9 -31 -8 -48 3 -6 4 -12 2 -12 -3
0 -11 4 -12 43 -14 28 -2 30 27 2 30 -16 1 -16 1 -2 -3z"/>
<path d="M1820 4180 c0 -5 7 -10 15 -10 8 0 15 5 15 10 0 6 -7 10 -15 10 -8 0
-15 -4 -15 -10z"/>
<path d="M7937 4089 c3 -10 9 -16 14 -13 13 8 11 21 -5 27 -10 4 -12 0 -9 -14z"/>
<path d="M1520 3439 c0 -5 5 -7 10 -4 6 3 10 8 10 11 0 2 -4 4 -10 4 -5 0 -10
-5 -10 -11z"/>
<path d="M8308 3193 c7 -3 16 -2 19 1 4 3 -2 6 -13 5 -11 0 -14 -3 -6 -6z"/>
<path d="M1285 2532 c-10 -7 -19 -52 -11 -52 2 0 9 14 15 30 11 33 11 33 -4
22z"/>
<path d="M1251 2514 c0 -11 3 -14 6 -6 3 7 2 16 -1 19 -3 4 -6 -2 -5 -13z"/>
<path d="M4799 8186 c-16 -16 -27 -21 -35 -15 -8 6 -40 -13 -100 -57 -49 -37
-138 -99 -199 -138 -60 -39 -184 -120 -275 -181 -91 -61 -214 -142 -275 -179
-60 -38 -148 -94 -195 -126 -47 -31 -139 -90 -204 -130 -66 -40 -134 -82 -152
-94 -18 -12 -80 -48 -138 -81 -58 -33 -106 -63 -106 -67 -1 -28 252 -97 307
-83 13 3 72 38 131 78 59 41 139 91 177 112 86 47 105 63 105 87 0 12 7 18 24
18 14 0 102 56 227 146 112 81 232 164 266 185 34 21 100 67 147 101 46 35
117 83 158 108 40 24 107 72 149 106 61 49 74 65 67 78 -5 9 -15 16 -23 16
-13 0 -25 46 -29 114 0 14 -2 26 -2 26 -1 0 -12 -11 -25 -24z m-39 -100 c0
-15 -45 -56 -61 -56 -18 0 -8 29 17 49 31 25 44 26 44 7z m-950 -656 c0 -5
-16 -38 -35 -73 -19 -35 -35 -72 -36 -83 -1 -10 -5 1 -10 26 -10 53 -6 70 28
110 24 29 53 40 53 20z m-110 -30 c0 -5 -7 -10 -16 -10 -8 0 -12 5 -9 10 3 6
10 10 16 10 5 0 9 -4 9 -10z"/>
<path d="M4169 7477 c-58 -40 -141 -97 -185 -127 -43 -30 -100 -68 -126 -85
-92 -59 -306 -204 -368 -249 -74 -55 -51 -65 25 -11 123 86 233 160 274 183
24 13 69 44 100 68 31 25 107 79 169 120 63 42 126 87 140 100 15 12 41 34 57
48 50 42 26 29 -86 -47z"/>
<path d="M5170 8156 c14 -15 34 -33 45 -38 15 -8 14 -5 -5 13 -42 41 -69 57
-40 25z"/>
<path d="M5124 8138 c-10 -24 9 -100 37 -147 14 -23 160 -131 177 -131 20 0 4
82 -22 109 -18 19 -23 30 -16 37 8 8 -1 20 -27 40 -20 15 -57 47 -81 71 -24
24 -46 43 -50 43 -4 0 -12 -10 -18 -22z"/>
<path d="M5408 7993 c7 -3 16 -2 19 1 4 3 -2 6 -13 5 -11 0 -14 -3 -6 -6z"/>
<path d="M5572 7895 c20 -14 40 -25 45 -25 4 0 -9 11 -29 25 -20 14 -40 25
-45 25 -4 0 9 -11 29 -25z"/>
<path d="M5724 7491 c7 -11 46 -35 46 -28 0 3 -12 12 -26 22 -15 9 -23 12 -20
6z"/>
<path d="M5805 7434 c36 -28 61 -36 30 -10 -16 14 -34 25 -40 25 -5 0 -1 -7
10 -15z"/>
<path d="M6300 7408 c0 -7 -13 -22 -30 -33 l-29 -20 22 -23 c45 -48 109 -82
153 -82 24 0 54 -4 68 -10 l26 -9 -21 -38 c-12 -21 -26 -44 -31 -51 -6 -7 -8
-15 -5 -19 9 -8 37 17 37 34 0 7 7 16 15 19 9 4 15 19 15 40 0 28 4 34 21 34
11 0 18 -4 15 -8 -3 -5 0 -9 7 -10 7 0 23 -4 37 -7 24 -7 24 -6 -5 19 -16 14
-61 41 -99 61 -38 20 -92 51 -120 69 -77 49 -76 48 -76 34z m154 -103 c15 -11
17 -18 9 -26 -9 -9 -16 -8 -28 5 -9 9 -22 16 -28 16 -7 0 -6 4 3 10 19 12 21
12 44 -5z"/>
<path d="M5875 7390 c3 -5 29 -25 58 -44 29 -19 72 -54 96 -76 25 -23 54 -46
65 -51 22 -9 31 -15 104 -61 24 -16 46 -28 49 -28 4 0 15 -7 25 -17 10 -9 21
-14 24 -11 3 4 -39 37 -93 74 -54 37 -129 90 -167 117 -79 57 -170 112 -161
97z"/>
<path d="M6170 7295 c0 -8 5 -15 10 -15 6 0 10 7 10 15 0 8 -4 15 -10 15 -5 0
-10 -7 -10 -15z"/>
<path d="M6364 7061 c7 -11 46 -35 46 -28 0 3 -12 12 -26 22 -15 9 -23 12 -20
6z"/>
<path d="M5129 7412 c10 -19 116 -122 125 -122 12 0 4 12 -46 67 -53 59 -98
90 -79 55z"/>
<path d="M5346 7387 c3 -10 9 -15 12 -12 3 3 0 11 -7 18 -10 9 -11 8 -5 -6z"/>
<path d="M5690 6621 c-13 -25 -13 -34 0 -26 16 10 32 45 21 45 -6 0 -15 -9
-21 -19z"/>
<path d="M5495 6570 c-3 -5 -1 -10 4 -10 6 0 11 5 11 10 0 6 -2 10 -4 10 -3 0
-8 -4 -11 -10z"/>
<path d="M4325 6530 c3 -5 8 -10 11 -10 2 0 4 5 4 10 0 6 -5 10 -11 10 -5 0
-7 -4 -4 -10z"/>
<path d="M5355 6248 c-54 -34 -94 -63 -87 -66 7 -2 34 12 61 32 27 20 51 36
54 36 6 0 76 46 86 56 19 18 -30 -6 -114 -58z"/>
<path d="M5378 6083 c7 -3 16 -2 19 1 4 3 -2 6 -13 5 -11 0 -14 -3 -6 -6z"/>
<path d="M5865 6033 c-53 -12 -105 -37 -93 -44 7 -4 9 -11 5 -15 -4 -4 -2 -12
3 -19 7 -8 0 -19 -22 -35 -36 -26 -74 -31 -104 -14 -33 20 -50 3 -34 -35 7
-17 18 -35 25 -39 7 -4 32 -24 56 -45 48 -41 146 -91 151 -76 2 5 28 -3 58
-18 36 -17 49 -28 38 -30 -9 -2 -28 3 -43 13 -14 9 -28 14 -31 11 -3 -3 9 -12
28 -21 18 -9 48 -30 66 -47 17 -16 32 -27 32 -24 0 3 14 -2 30 -12 17 -9 30
-22 30 -28 0 -18 93 -74 175 -106 44 -16 85 -35 92 -41 32 -26 18 1 -24 47
-24 27 -69 93 -99 145 -29 52 -94 154 -143 225 -159 232 -148 219 -196 208z
m182 -349 c-3 -3 -12 -4 -19 -1 -8 3 -5 6 6 6 11 1 17 -2 13 -5z"/>
<path d="M5325 5843 c55 -31 150 -74 140 -64 -14 13 -148 81 -160 81 -5 -1 4
-8 20 -17z"/>
<path d="M5481 5766 c10 -9 69 -36 69 -32 0 6 -55 36 -66 36 -4 0 -5 -2 -3 -4z"/>
<path d="M3687 5623 c-4 -3 -7 -11 -7 -17 0 -6 5 -5 12 2 6 6 9 14 7 17 -3 3
-9 2 -12 -2z"/>
<path d="M5003 5035 c0 -22 2 -30 4 -17 2 12 2 30 0 40 -3 9 -5 -1 -4 -23z"/>
<path d="M6577 5592 c-6 -156 -5 -186 8 -198 13 -14 15 -1 14 113 -1 70 -4
160 -8 198 -5 58 -7 39 -14 -113z"/>
<path d="M6591 5293 c-1 -23 4 -45 9 -48 12 -8 12 42 0 70 -7 16 -9 11 -9 -22z"/>
<path d="M7929 6613 c-13 -16 -12 -17 4 -4 16 13 21 21 13 21 -2 0 -10 -8 -17
-17z"/>
<path d="M7787 6614 c-3 -3 -3 -12 0 -20 6 -16 33 -19 33 -4 0 6 -6 10 -12 10
-9 0 -8 4 2 10 13 8 13 10 -1 10 -9 0 -18 -3 -22 -6z"/>
<path d="M7760 6586 c0 -17 14 -29 23 -20 8 8 -3 34 -14 34 -5 0 -9 -6 -9 -14z"/>
<path d="M7875 6560 c-4 -6 -11 -8 -16 -5 -5 4 -9 1 -9 -4 0 -16 16 -13 30 4
7 8 10 15 7 15 -3 0 -9 -5 -12 -10z"/>
<path d="M1035 5090 c-3 -5 -1 -10 4 -10 6 0 11 5 11 10 0 6 -2 10 -4 10 -3 0
-8 -4 -11 -10z"/>
<path d="M3278 5083 c7 -3 16 -2 19 1 4 3 -2 6 -13 5 -11 0 -14 -3 -6 -6z"/>
<path d="M6560 5141 c0 -12 73 -61 92 -61 17 0 -6 20 -54 49 -21 13 -38 18
-38 12z"/>
<path d="M8335 4686 c-19 -14 -17 -15 22 -16 23 0 45 5 48 10 3 6 0 10 -9 10
-8 0 -20 2 -28 5 -7 3 -22 -1 -33 -9z"/>
<path d="M2280 3110 c14 -4 32 -8 40 -9 13 -1 13 0 0 9 -8 5 -26 9 -40 9 l-25
-1 25 -8z"/>
<path d="M2173 2873 c9 -2 23 -2 30 0 6 3 -1 5 -18 5 -16 0 -22 -2 -12 -5z"/>
<path d="M3075 3859 c4 -15 -3 -72 -14 -126 -12 -54 -25 -127 -30 -161 l-8
-64 69 7 c37 4 105 15 151 24 l82 17 16 129 c9 72 19 145 23 163 l8 33 -94 -6
c-51 -4 -119 -2 -151 3 l-58 9 6 -28z"/>
<path d="M4745 3140 c3 -5 12 -7 20 -3 21 7 19 13 -6 13 -11 0 -18 -4 -14 -10z"/>
<path d="M6810 3862 c0 -12 11 -91 25 -176 14 -85 25 -175 25 -199 0 -55 5
-57 143 -57 91 0 98 1 92 18 -14 45 -35 177 -46 295 l-13 127 -30 0 c-17 0
-68 3 -113 7 -80 6 -83 5 -83 -15z"/>
<path d="M7402 3110 c0 -14 2 -19 5 -12 2 6 2 18 0 25 -3 6 -5 1 -5 -13z"/>
<path d="M7412 3060 c0 -14 3 -34 8 -45 l9 -20 -1 20 c0 11 -4 31 -8 45 l-8
25 0 -25z"/>
<path d="M7491 2784 c0 -11 3 -14 6 -6 3 7 2 16 -1 19 -3 4 -6 -2 -5 -13z"/>
<path d="M8331 2894 c0 -11 3 -14 6 -6 3 7 2 16 -1 19 -3 4 -6 -2 -5 -13z"/>
<path d="M8372 2725 c0 -11 3 -29 8 -40 11 -25 11 1 0 35 -6 20 -8 21 -8 5z"/>
<path d="M5836 2143 c-9 -9 -7 -88 4 -205 18 -180 13 -168 72 -168 49 0 50 1
46 28 -48 278 -59 332 -66 330 -4 -1 -17 3 -28 10 -12 6 -24 8 -28 5z"/>
<path d="M6093 2093 c3 -38 16 -125 28 -195 l23 -128 42 0 c62 0 66 11 45 117
-33 158 -48 199 -89 237 -20 20 -41 36 -46 36 -5 0 -6 -30 -3 -67z"/>
<path d="M6512 2147 c-7 -7 -16 -37 -23 -65 -6 -31 -16 -52 -24 -52 -16 0
-136 69 -147 85 -5 6 -8 3 -8 -7 0 -9 15 -36 33 -60 18 -24 66 -91 106 -151
40 -59 81 -112 91 -117 22 -12 110 -13 110 -2 -1 15 -40 250 -52 302 -6 30
-16 61 -21 68 -12 16 -52 16 -65 -1z"/>
<path d="M3632 2308 c-7 -51 -12 -97 -12 -103 0 -6 38 -11 89 -12 l90 -1 5 51
c3 29 7 76 9 105 l4 52 -86 0 -87 0 -12 -92z"/>
<path d="M4526 2109 c5 -8 -1 -10 -20 -7 -18 4 -26 1 -26 -9 0 -8 -4 -12 -9
-9 -10 6 -21 -26 -21 -61 0 -13 -5 -22 -11 -20 -7 1 -16 -13 -21 -30 -5 -18
-13 -33 -18 -33 -12 0 -44 62 -60 115 -9 32 -17 41 -36 43 -13 1 -24 -3 -24
-8 0 -6 -9 -10 -20 -10 -11 0 -20 5 -20 10 0 6 -4 10 -10 10 -18 0 -11 -43 32
-189 l42 -143 85 6 c47 4 87 9 89 11 2 1 18 63 36 136 32 127 37 199 14 199
-5 0 -6 -5 -2 -11z"/>
<path d="M4985 2315 c4 -55 8 -101 9 -101 0 -1 46 -5 100 -9 90 -6 98 -6 92
10 -3 9 -6 56 -6 105 l0 89 -101 3 -101 3 7 -100z"/>
<path d="M5554 1838 c9 -44 42 -80 43 -45 0 6 3 27 7 45 7 31 7 32 -24 32 -31
0 -32 -1 -26 -32z"/>
</g>
</svg>
